<?xml version="1.0" encoding="UTF-8"?><svg id="Layer_2" xmlns="http://www.w3.org/2000/svg" viewBox="0 0 91.21 91.21"><defs><style>.cls-1{fill:#e84853;}</style></defs><g id="Layer_1-2"><g><path class="cls-1" d="M68.38,53.63c.03,2.53-.46,4.93-1.44,7.12-.99,2.2-2.37,4.12-4.1,5.73-1.73,1.61-3.83,2.9-6.24,3.85-2.41,.94-5.06,1.44-7.87,1.47-.2,0-.44,0-.72,.01-2.47,.04-8.24,.14-11.45-.7-11.14-2.9-14.35-7.2-15.09-10.29-.67-2.83,.59-5.47,2.14-6.84,1.26-1.11,2.93-1.7,4.63-1.7,.61,0,1.23,.08,1.83,.24,2.04,.54,3.58,1.91,4.22,3.77,2.16,6.23,7.93,12.68,13.85,12.68,2.71,0,4.94-.76,6.63-2.25,1.66-1.47,2.49-3.42,2.46-5.8-.02-2.13-.86-3.75-2.79-5.43-1.81-1.58-4.78-3.09-8.8-4.49l-7.91-2.77c-5.07-1.78-8.82-3.77-11.12-5.93-1.77-1.65-3.1-4.49-3.4-7.24-.04-.38-.11-1.38-.11-1.51-.03-2.48,.49-4.85,1.52-7.04,1.04-2.19,2.48-4.11,4.3-5.69,1.82-1.58,4.01-2.86,6.52-3.81,2.51-.94,5.29-1.44,8.27-1.47,1.38-.01,2.83,.07,4.33,.25,.08,.01,.21,.03,.38,.05,6.22,.85,11.38,.92,15.34,.21,.12-.02,.33-.08,.53-.13,.05-.01,.1-.03,.15-.04l-.1,6.75c-.03,1.8-1.07,3.33-2.71,3.99-1.63,.66-3.42,.28-4.66-.98-4.64-4.69-8.66-6.97-12.3-6.97-1.81,0-5.11,.23-6.85,1.78-1.52,1.36-2.29,3.17-2.26,5.4,.01,1.12,.27,2.19,.78,3.19,.5,1.01,1.19,1.84,2.03,2.5,.94,.7,2.28,1.46,3.99,2.26,1.71,.81,3.62,1.59,5.69,2.31l7.23,2.63c2.89,1.06,5.33,2.28,7.23,3.63h0c1,.75,1.86,1.52,2.56,2.29,2.14,2.4,3.25,5.41,3.28,8.97Z"/><path class="cls-1" d="M52.87,11.63l1.58-9.68c.15-.92-.47-1.78-1.39-1.93-.92-.15-1.78,.47-1.93,1.39l-1.61,9.85c1.16,.15,2.27,.27,3.35,.37Z"/><path class="cls-1" d="M74.81,9.91c-.72-.59-1.78-.48-2.37,.23l-3.28,4.02-.03,1.78-.05,3.65,5.97-7.31h0c.59-.72,.48-1.78-.24-2.37Z"/><path class="cls-1" d="M88.81,29.32c-.33-.87-1.3-1.31-2.17-.98l-23.55,8.86c.75,.44,1.48,.88,2.14,1.35l.05,.04,.04,.03c.4,.3,.78,.6,1.14,.91l21.36-8.04c.87-.33,1.31-1.3,.98-2.17Z"/><path class="cls-1" d="M89.8,51.14l-17.51-2.87c.32,1.12,.55,2.29,.66,3.52l16.3,2.67c.92,.15,1.78-.47,1.93-1.39,.15-.92-.47-1.78-1.39-1.93Z"/><path class="cls-1" d="M58.38,74.64s-.05,.02-.07,.03c-1,.39-2.04,.7-3.1,.96l4.58,12.17c.21,.56,.71,.97,1.3,1.07,.29,.05,.59,.02,.87-.08,.84-.33,1.26-1.26,.97-2.11l-4.54-12.03Z"/><path class="cls-1" d="M38.89,76.21l-2.14,13.05c-.15,.92,.47,1.78,1.39,1.93,.92,.15,1.78-.47,1.93-1.39l2.19-13.36c-1.24-.05-2.36-.13-3.37-.23Z"/><path class="cls-1" d="M31.68,13.53c.69-.33,1.41-.63,2.14-.91,.32-.12,.66-.21,.99-.32l-3.36-8.94c-.33-.87-1.3-1.31-2.17-.98s-1.31,1.3-.98,2.17l3.38,8.97Z"/><path class="cls-1" d="M19.57,39.64L1.95,36.75c-.92-.15-1.78,.47-1.93,1.39-.15,.92,.47,1.78,1.39,1.93l20.06,3.29c-.77-1.13-1.41-2.39-1.91-3.72Z"/><path class="cls-1" d="M17.67,54.39l-14.19,5.34c-.71,.27-1.16,.98-1.08,1.74,.08,.76,.65,1.37,1.41,1.49,.29,.05,.59,.02,.87-.08l12.01-4.52c.1-1.37,.44-2.72,.99-3.97Z"/><path class="cls-1" d="M23.21,70.42l-7,8.58c-.55,.71-.44,1.73,.25,2.31,.23,.18,.5,.31,.79,.36,.59,.1,1.19-.13,1.57-.59l7.27-8.91c-1.05-.55-2.01-1.13-2.89-1.74Z"/><path class="cls-1" d="M20.42,24.5c.19-.41,.42-.79,.63-1.18l-8.83-7.21c-.72-.59-1.78-.48-2.37,.24-.59,.72-.48,1.78,.24,2.37h0l9.52,7.77c.24-.67,.5-1.34,.81-1.99Z"/><path class="cls-1" d="M81.17,72.45l-.06,.04-10.54-8.61c-.52,.99-1.09,1.94-1.74,2.83l10.2,8.33h0c.23,.19,.5,.31,.79,.36,.75,.13,1.49-.27,1.8-.96s.12-1.52-.47-1.99Z"/></g></g></svg>
