<svg xmlns="http://www.w3.org/2000/svg" fill="none" viewBox="0 0 174 174" height="20" width="20" >
  <path fill="#E84853" d="M100.922.0434993C99.1896-.244945 97.546.931022 97.2573 2.68388L86.8852 65.8755c-.2887 1.7306.8884 3.3726 2.643 3.661 1.7546.2884 3.376-.8875 3.6647-2.6404L103.565 3.70453c.289-1.73067-.888-3.372586-2.643-3.6610307ZM59.7889 6.41112c-.6219-1.64191-2.4654-2.48506-4.1311-1.86379-1.6436.62126-2.4875 2.46287-1.8657 4.12698L76.3577 68.5821c.3997 1.065 1.3548 1.8416 2.4875 2.0191.5553.0887 1.1327.0222 1.6435-.1775 1.6214-.6213 2.4209-2.3963 1.8435-4.0161L59.7667 6.41112h.0222ZM19.1887 35.5665l49.6397 40.4932c.422.355.9328.5769 1.4881.6657 1.4436.2441 2.8428-.5103 3.4647-1.8194.5997-1.3091.2444-2.8845-.8884-3.7942L23.2532 30.6186c-1.3771-1.1094-3.376-.9097-4.5087.4438-1.1105 1.3756-.9106 3.3725.4442 4.5041Zm50.417 48.2812c.2887-1.7307-.8884-3.3726-2.643-3.661L3.7082 69.8249c-1.73239-.2885-3.375926.8875-3.6646575 2.6403-.2887315 1.7529.8884115 3.3726 2.6430175 3.6611L65.941 86.4881c1.7324.2884 3.376-.8875 3.6647-2.6404Zm.9995 8.9418c-.6218-1.6197-2.3987-2.4185-4.02-1.8416L6.61782 113.491c-1.35482.51-2.19879 1.864-2.06553 3.306.13326 1.442 1.24377 2.596 2.66521 2.84.55526.089 1.13273.044 1.64357-.155L68.8285 96.9387c1.6213-.6656 2.3986-2.5072 1.7545-4.127l.0222-.0222Zm5.1305 7.2775c-1.3548-1.043-3.2871-.8433-4.3976.444l-40.5335 49.59c-1.0439 1.353-.844 3.284.4664 4.393.4442.355.9551.577 1.5103.688 1.1327.177 2.2655-.244 2.9984-1.132l40.5335-49.59c1.0439-1.376.7774-3.328-.5775-4.393Zm8.1735 3.683c-1.7324-.288-3.376.888-3.6648 2.64l-10.3721 63.192c-.2887 1.731.8884 3.373 2.643 3.661 1.7546.289 3.376-.887 3.6647-2.64l10.3721-63.192c.2887-1.731-.8883-3.372-2.6429-3.661Zm13.0815.955c-.6441-1.576-2.4209-2.375-4.02-1.82-1.6213.621-2.4431 2.396-1.8434 4.016l22.5657 59.908c.4 1.065 1.355 1.841 2.487 2.019.556.089 1.111.022 1.644-.155 1.599-.644 2.399-2.397 1.843-4.016l-22.6763-59.952Zm57.2573 33.037-49.639-40.4931c-1.355-1.065-3.309-.8653-4.398.466-1.0436 1.3535-.8438 3.2841.444 4.3931l49.64 40.493c.422.378.955.599 1.51.688 1.422.244 2.843-.51 3.421-1.841.577-1.332.222-2.885-.889-3.795l-.111.089h.022Zm16.525-40.5813-63.255-10.3619c-1.732-.2884-3.376.8876-3.664 2.6404-.289 1.7529.888 3.3726 2.643 3.661l63.254 10.3618c1.733.289 3.376-.887 3.665-2.64.289-1.7532-.889-3.3729-2.643-3.6613Zm-67.808-16.641c.4 1.065 1.333 1.8416 2.488 2.0191.533.0887 1.11.0444 1.621-.1553l59.968-22.5431c1.643-.6213 2.487-2.4629 1.865-4.127-.622-1.6419-2.465-2.485-4.131-1.8638l-59.967 22.5431c-1.644.6213-2.466 2.485-1.844 4.127Zm-5.2635-7.1671c.422.355.955.599 1.5103.71 1.1332.1775 2.2652-.2441 2.9982-1.1316l40.534-49.5903c1.11-1.3757.91-3.3726-.445-4.5042-1.377-1.1094-3.375-.9097-4.508.4438L97.2573 68.8706c-.533.6434-.7996 1.4866-.7107 2.3297.0888.8432.5109 1.6197 1.1772 2.1523h-.0223Z"/>
</svg>
