<svg width="176" height="36" viewBox="0 0 176 36" fill="none" xmlns="http://www.w3.org/2000/svg">
<g clip-path="url(#clip0_150_5582)">
<path fill-rule="evenodd" clip-rule="evenodd" d="M32.5926 15.0544C32.5926 16.7674 32.3173 18.4781 31.7705 20.1054C30.8868 22.7359 29.2993 25.1214 27.212 26.9805C26.1714 27.9053 25.0124 28.7008 23.7666 29.3358C23.1521 29.6509 22.5026 29.9612 21.8459 30.1761C20.8934 30.4875 19.9831 30.962 19.2311 31.6199C18.619 32.1547 18.1965 32.8634 17.8657 33.5912C17.5663 34.2493 17.4214 35.0582 16.7997 35.5106C16.6838 35.5954 16.5547 35.6654 16.4122 35.6895C16.1128 35.7401 15.8146 35.5784 15.6009 35.3659C15.2182 34.9855 15.0517 34.4787 14.8923 33.9814C14.2609 32.0135 12.6963 30.8074 10.7479 30.1748C10.0912 29.96 9.44048 29.6485 8.82601 29.3346C7.58016 28.7008 6.42123 27.9053 5.38058 26.9793C3.29452 25.1202 1.70701 22.7347 0.822119 20.1042C0.275246 18.4769 0 16.7662 0 15.0532C0 14.1345 0.0808837 13.2158 0.240237 12.3091C0.382689 11.4955 0.579467 10.6903 0.83057 9.90196C1.48609 7.84846 2.53155 5.92657 4.00798 4.33185C5.41559 2.81074 7.29644 1.54436 9.1918 0.692058C9.89922 0.374561 10.6465 0.105349 11.4276 0.0377451C11.9865 -0.0117512 12.8002 -0.108329 13.1044 0.489247C13.1962 0.669123 13.2263 0.869521 13.23 1.06992C13.2432 1.61438 13.0754 2.08278 12.8038 2.49444C12.4404 3.04373 11.8924 3.49402 11.3419 3.88879C10.8143 4.26784 10.3085 4.69884 9.81471 5.12137C8.78494 6.00385 7.82281 6.96839 7.01637 8.0549C6.07233 9.32008 5.39629 10.7748 5.04377 12.3055C4.84821 13.1482 4.75164 14.0126 4.75164 14.8769C4.75164 21.1931 9.90284 26.3238 16.2987 26.4301C22.6934 26.3238 27.8434 21.1907 27.8434 14.8769C27.8434 14.0126 27.7468 13.1482 27.5512 12.3055C27.1987 10.7748 26.5227 9.32008 25.5786 8.0549C24.7722 6.96839 23.8101 6.00505 22.7803 5.12137C22.2865 4.69884 21.7807 4.26663 21.2531 3.88879C20.7027 3.49523 20.1546 3.04494 19.7912 2.49444C19.5196 2.08278 19.3506 1.61438 19.3651 1.06992C19.3687 0.870727 19.3989 0.669123 19.4906 0.489247C19.7948 -0.108329 20.6085 -0.0117512 21.1674 0.0377451C21.9485 0.105349 22.697 0.374561 23.4032 0.692058C25.2986 1.54436 27.1806 2.81194 28.587 4.33185C30.0635 5.92657 31.1089 7.84846 31.7644 9.90196C32.0155 10.6903 32.2111 11.4955 32.3548 12.3091C32.5117 13.217 32.5926 14.1357 32.5926 15.0544Z" fill="#1C69F1"/>
<path d="M16.4192 22.0719C20.4423 22.0719 23.7036 18.8646 23.7036 14.9082C23.7036 10.9518 20.4423 7.74457 16.4192 7.74457C12.3962 7.74457 9.13483 10.9518 9.13483 14.9082C9.13483 18.8646 12.3962 22.0719 16.4192 22.0719Z" fill="#1C69F1"/>
<path d="M49.6154 25.7369C49.6154 26.8833 49.9022 27.7431 49.9022 27.7431C49.9592 27.915 50.074 28.0297 50.1887 28.0297H53.0545C53.2266 28.0297 53.3414 27.915 53.3414 27.7431C53.3414 27.6284 53.0545 26.8833 53.0545 25.7369V13.9861C53.0545 13.8142 52.9401 13.6995 52.7681 13.6995L49.9022 13.9861C49.7301 13.9861 49.6154 14.1008 49.6154 14.2727V25.7369ZM49.3289 9.68708C49.3289 10.8048 50.2174 11.6933 51.335 11.6933C52.4529 11.6933 53.3414 10.8048 53.3414 9.68708C53.3414 8.56932 52.4529 7.68085 51.335 7.68085C50.2174 7.68085 49.3289 8.56932 49.3289 9.68708ZM61.9572 8.25405C61.9572 8.08209 61.8425 7.96747 61.6707 7.96747L58.8045 8.25405C58.6328 8.25405 58.518 8.36871 58.518 8.54067V13.6995H55.6522C55.4801 13.6995 55.3654 13.8142 55.3654 13.9861C55.3654 14.1008 55.6522 16.2789 55.6522 16.2789C55.6805 16.4509 55.8239 16.5656 55.9387 16.5656H58.518V22.5842C58.518 25.7655 59.5499 28.3163 63.1038 28.3163C64.2501 28.3163 65.3964 28.0297 65.3964 28.0297C65.5685 27.9723 65.6832 27.8291 65.6832 27.6858C65.6832 27.5424 65.3964 25.3929 65.3964 25.3929C65.3677 25.2783 65.2246 25.1636 65.1099 25.1636C64.9665 25.1636 63.9349 25.4502 63.3903 25.4502C62.4445 25.4502 61.9572 24.4758 61.9572 22.5842V16.5656H65.1099C65.282 16.5656 65.3964 16.4509 65.3964 16.2789C65.3964 16.193 65.1099 13.9861 65.1099 13.9861C65.0812 13.8142 64.9665 13.6995 64.8234 13.6995H61.9572V8.25405ZM75.6989 10.8335C80.8577 10.8335 81.574 15.2758 81.574 17.9986C81.574 20.7213 80.8577 25.1636 75.6989 25.1636H72.5462V10.8335H75.6989ZM75.6989 28.0297C84.2968 28.0297 85.1566 22.1257 85.1566 17.9986C85.1566 13.8715 84.2968 7.96747 75.6989 7.96747H71.9729L69.3935 8.25405C69.2214 8.28273 69.107 8.36871 69.107 8.54067V27.7431C69.107 27.915 69.2214 28.0297 69.3935 28.0297H75.6989ZM101.583 28.0297C101.755 28.0297 101.84 27.915 101.869 27.7431C101.869 27.7431 102.156 25.5649 102.156 25.4502C102.156 25.2783 102.041 25.1636 101.869 25.1636H92.6979V19.145H101.009C101.181 19.145 101.296 19.0303 101.296 18.8584V16.5656C101.296 16.3936 101.181 16.2789 101.009 16.2789H92.6979V10.8335H101.869C102.041 10.8335 102.156 10.7189 102.156 10.5469C102.156 10.4322 101.869 8.25405 101.869 8.25405C101.84 8.08209 101.755 7.96747 101.583 7.96747H92.4114L89.5452 8.25405C89.3734 8.28273 89.2587 8.36871 89.2587 8.54067V27.7431C89.2587 27.915 89.3734 28.0297 89.5452 28.0297H101.583ZM120.575 11.1201C120.575 11.0055 120.288 8.82729 120.288 8.82729C120.26 8.71263 120.145 8.598 120.002 8.54067C120.002 8.54067 117.709 7.68085 114.843 7.68085C106.245 7.68085 105.385 13.8715 105.385 17.9986C105.385 22.1257 106.245 28.3163 114.843 28.3163C118.856 28.3163 121.435 27.4565 121.435 27.4565C121.607 27.4278 121.722 27.3132 121.722 27.1698V16.5656C121.722 16.3936 121.607 16.2789 121.435 16.2789H113.983C113.811 16.2789 113.725 16.3936 113.697 16.5656C113.697 16.5656 113.41 18.7438 113.41 18.8584C113.41 19.0303 113.525 19.145 113.697 19.145H118.282V25.2496C118.282 25.2496 116.849 25.4502 114.843 25.4502C109.684 25.4502 108.968 21.0079 108.968 17.9986C108.968 14.9892 109.684 10.5469 114.843 10.5469C116.849 10.5469 120.145 11.4067 120.288 11.4067C120.461 11.4067 120.575 11.2921 120.575 11.1201ZM129.419 16.2789V10.8335H132.285C136.011 10.8335 136.297 12.1232 136.297 13.5562C136.297 14.9892 136.011 16.2789 132.285 16.2789H129.419ZM136.871 27.7431C136.957 27.915 137.042 28.0297 137.157 28.0297H140.31C140.482 28.0297 140.596 27.915 140.596 27.7431C140.596 27.7431 139.565 24.8484 137.874 21.1512C137.53 20.406 136.928 19.4602 136.154 18.7151C139.164 17.8553 139.736 15.9923 139.736 13.5562C139.736 10.5469 138.877 7.96747 132.285 7.96747H128.846L126.266 8.25405C126.094 8.28273 125.98 8.36871 125.98 8.54067V27.7431C125.98 27.915 126.094 28.0297 126.266 28.0297H129.132C129.304 28.0297 129.419 27.915 129.419 27.7431V19.145H131.425C132.887 19.145 133.976 20.664 134.291 21.4378L136.871 27.7431ZM156.664 28.0297C156.836 28.0297 156.922 27.915 156.951 27.7431C156.951 27.7431 157.237 25.5649 157.237 25.4502C157.237 25.2783 157.123 25.1636 156.951 25.1636H147.779V19.145H156.091C156.263 19.145 156.378 19.0303 156.378 18.8584V16.5656C156.378 16.3936 156.263 16.2789 156.091 16.2789H147.779V10.8335H156.951C157.123 10.8335 157.237 10.7189 157.237 10.5469C157.237 10.4322 156.951 8.25405 156.951 8.25405C156.922 8.08209 156.836 7.96747 156.664 7.96747H147.493L144.627 8.25405C144.455 8.28273 144.34 8.36871 144.34 8.54067V27.7431C144.34 27.915 144.455 28.0297 144.627 28.0297H156.664ZM173.765 28.0297C173.937 28.0297 174.023 27.915 174.052 27.7431C174.052 27.7431 174.338 25.5649 174.338 25.4502C174.338 25.2783 174.224 25.1636 174.052 25.1636H164.88V19.145H173.192C173.364 19.145 173.479 19.0303 173.479 18.8584V16.5656C173.479 16.3936 173.364 16.2789 173.192 16.2789H164.88V10.8335H174.052C174.224 10.8335 174.338 10.7189 174.338 10.5469C174.338 10.4322 174.052 8.25405 174.052 8.25405C174.023 8.08209 173.937 7.96747 173.765 7.96747H164.594L161.728 8.25405C161.556 8.28273 161.441 8.36871 161.441 8.54067V27.7431C161.441 27.915 161.556 28.0297 161.728 28.0297H173.765Z" fill="#2F3447"/>
<path d="M40.7381 25.7368C40.7381 26.8832 40.4516 27.6284 40.4516 27.743C40.4516 27.915 40.566 28.0296 40.7381 28.0296H43.604C43.7187 28.0296 43.8334 27.915 43.8908 27.743C43.8908 27.743 44.1773 26.8832 44.1773 25.7368V16.5655H46.7567C46.9001 16.5655 47.0148 16.4509 47.0435 16.2789C47.0435 16.2789 47.33 14.0721 47.33 13.9861C47.33 13.8141 47.2153 13.6995 47.0435 13.6995H44.1773V11.9799C44.1773 10.0883 44.5212 9.11383 45.467 9.11383C46.4702 9.11383 46.8714 9.40042 47.0435 9.40042C47.1579 9.40042 47.3013 9.28579 47.33 9.17116C47.33 9.17116 47.6165 7.02162 47.6165 6.87834C47.6165 6.73503 47.5021 6.59172 47.33 6.53439C47.33 6.53439 46.5562 6.2478 45.467 6.2478C41.9131 6.2478 40.7381 8.76992 40.7381 11.9799V13.6995H38.1588C38.044 13.6995 37.9006 13.8141 37.8719 13.9861C37.8719 13.9861 37.5854 16.1643 37.5854 16.2789C37.5854 16.4509 37.7002 16.5655 37.8719 16.5655H40.7381V25.7368Z" fill="#2F3447"/>
</g>
<defs>
<clipPath id="clip0_150_5582">
<rect width="176" height="35.8519" fill="white"/>
</clipPath>
</defs>
</svg>
