<svg width="165" height="37" viewBox="0 0 165 37" fill="none" xmlns="http://www.w3.org/2000/svg">
<g clip-path="url(#clip0_123_9717)">
<path style="mix-blend-mode:darken" d="M26.0019 3.09685C26.0019 6.6978 23.1817 9.91508 20.9176 11.9177C20.9176 11.9177 20.9176 11.9177 20.909 11.9177C20.051 12.2308 19.3191 12.8143 18.8245 13.5797C18.7847 13.6107 18.745 13.6416 18.7105 13.664C18.3763 13.1165 17.9197 12.6532 17.3763 12.3103C16.8329 11.9674 16.2174 11.7542 15.5777 11.6872C15.3805 11.6637 15.1821 11.6516 14.9836 11.651C14.9266 11.651 14.8731 11.651 14.8109 11.651C12.6867 9.77916 10.3206 6.86468 10.2792 3.18631C10.2736 2.42303 10.5573 1.68576 11.0736 1.12175C11.3714 0.780791 11.737 0.505067 12.1472 0.31199C12.5574 0.118914 13.0034 0.0126802 13.4569 0C15.3981 0 18.1768 1.89252 18.1768 1.89252C18.1768 1.89252 20.5204 0.0653779 22.8674 0.0653779C23.343 0.06147 23.8136 0.161418 24.2463 0.358191C24.6789 0.554964 25.063 0.843783 25.3716 1.20433C25.7977 1.74214 26.0208 2.41193 26.0019 3.09685Z" fill="url(#paint0_linear_123_9717)"/>
<path style="mix-blend-mode:multiply" d="M15.5776 11.6871C15.3805 11.6636 15.1821 11.6516 14.9835 11.651C14.9265 11.651 14.873 11.651 14.8108 11.651C13.4292 11.725 11.6124 12.6833 10.8732 14.4382C10.6681 14.9295 10.5568 15.4546 10.5451 15.9866C7.78189 16.0743 4.32786 15.5823 1.85651 13.1667C1.36383 12.6806 1.0525 12.0415 0.974001 11.3551C0.909449 10.8735 0.95346 10.3837 1.10283 9.92118C1.25221 9.45869 1.50318 9.03519 1.83751 8.68147C3.21912 7.31542 6.51426 6.68745 6.51426 6.68745C6.51426 6.68745 6.88212 3.74888 8.53832 2.09895C8.86758 1.76646 9.26454 1.50812 9.70246 1.34133C10.1404 1.17454 10.6091 1.10318 11.077 1.13204C11.7731 1.20109 12.4207 1.51817 12.9008 2.02497C15.4153 4.51965 15.7348 8.68664 15.5776 11.6871Z" fill="url(#paint1_linear_123_9717)"/>
<path style="mix-blend-mode:multiply" d="M12.4345 20.7867C12.4154 20.8137 12.3946 20.8396 12.3723 20.8641C10.5503 23.1386 7.36399 26.1288 3.20707 26.1683C2.47014 26.1756 1.75569 25.9157 1.19682 25.4371C0.83573 25.1407 0.542214 24.7711 0.335839 24.3528C0.129464 23.9344 0.0149733 23.4771 0 23.0113C0 21.0792 1.89972 18.304 1.89972 18.304C1.89972 18.304 0.0708076 15.9711 0.0708076 13.6364C0.0698633 12.7892 0.392828 11.9735 0.974036 11.3551C1.25284 11.0762 1.58616 10.8573 1.95333 10.712C2.32051 10.5667 2.71373 10.498 3.10863 10.5103C6.13263 10.5103 8.88721 12.4785 10.8802 14.4433C10.675 14.9346 10.5637 15.4597 10.5521 15.9917C10.5521 16.0399 10.5521 16.0881 10.5521 16.1362C10.5469 17.9875 11.255 19.4413 12.4345 20.7867Z" fill="url(#paint2_linear_123_9717)"/>
<path style="mix-blend-mode:multiply" d="M13.2877 34.4883C12.7182 35.06 11.9459 35.3856 11.1375 35.395C10.7048 35.4112 10.2731 35.3414 9.86775 35.1896C9.4624 35.0377 9.09149 34.8069 8.77669 34.5106C7.39508 33.1343 6.77854 29.8516 6.77854 29.8516C6.77854 29.8516 3.8288 29.4852 2.17259 27.8352C1.85452 27.5226 1.60367 27.1487 1.43532 26.7364C1.26697 26.3241 1.18465 25.8819 1.19338 25.4369C1.22924 24.6941 1.55379 23.9944 2.09833 23.4859C4.77348 20.826 9.33625 20.6333 12.3689 20.8639L12.514 20.8776C13.2405 21.6758 14.0281 22.4167 14.8696 23.0936C15.272 23.4256 15.6381 23.7594 15.9783 24.0915C15.9873 24.1346 15.9937 24.1783 15.9973 24.2222C16.3289 27.1126 16.2149 31.5067 13.2877 34.4883Z" fill="url(#paint3_linear_123_9717)"/>
<path style="mix-blend-mode:multiply" d="M35.5334 11.0112C35.5383 11.4246 35.4596 11.8347 35.302 12.2172C35.1445 12.5997 34.9113 12.9466 34.6163 13.2375C32.4265 15.3743 29.4767 16.0005 26.9156 16.0573C26.9125 15.2155 26.6562 14.3939 26.1799 13.6986C25.2577 12.3531 23.6671 11.6512 22.4823 11.6512C21.9495 11.6467 21.4199 11.7352 20.9177 11.9127C20.9177 11.9127 20.9177 11.9127 20.909 11.9127C20.7363 8.90016 21.0178 4.63683 23.5755 2.09053C24.0514 1.59444 24.6871 1.28081 25.3716 1.20449C25.8441 1.17159 26.3181 1.24099 26.7611 1.40789C27.2041 1.5748 27.6056 1.83526 27.938 2.17139C29.5976 3.82132 29.9603 6.75989 29.9603 6.75989C29.9603 6.75989 33.2693 7.3827 34.6422 8.75048C35.2211 9.36119 35.5404 10.1713 35.5334 11.0112Z" fill="url(#paint4_linear_123_9717)"/>
<path style="mix-blend-mode:multiply" d="M24.6807 21.1738C26.5563 23.3382 29.5509 25.8501 33.3659 25.8948C34.1318 25.9005 34.8717 25.6185 35.4383 25.1051C35.7828 24.81 36.0618 24.4466 36.2574 24.0381C36.4531 23.6296 36.5611 23.185 36.5747 22.7326C36.5747 20.8005 34.675 18.0305 34.675 18.0305C34.675 18.0305 36.5004 15.6924 36.5004 13.3577C36.5026 12.9223 36.4182 12.4908 36.2523 12.0881C36.0863 11.6853 35.8419 11.3193 35.5333 11.011C35.2569 10.7508 34.9314 10.5479 34.5756 10.4141C34.2198 10.2803 33.8409 10.2183 33.4609 10.2316C30.6769 10.2316 28.1192 11.9005 26.1746 13.6984C26.6509 14.3937 26.9072 15.2153 26.9103 16.0571C26.912 16.0806 26.912 16.1042 26.9103 16.1277C26.9103 17.9961 26.1936 19.4413 25.0106 20.8039L24.6807 21.1738Z" fill="url(#paint5_linear_123_9717)"/>
<path style="mix-blend-mode:multiply" d="M25.0175 20.8043C28.0121 20.6615 32.0896 21.0142 34.5593 23.4727C35.0187 23.9095 35.3251 24.4819 35.4331 25.1054C35.6058 26.1601 35.1223 27.1838 34.485 27.8186C32.8288 29.4686 29.8773 29.835 29.8773 29.835C29.8773 29.835 29.2521 33.1314 27.8757 34.4975C27.5474 34.8062 27.1585 35.0439 26.7335 35.1955C26.3084 35.3471 25.8565 35.4094 25.4061 35.3784C24.6369 35.3426 23.9097 35.0187 23.3699 34.4717C20.7 31.7585 20.3667 27.872 20.5808 25.0194C20.7535 24.8319 20.9366 24.6358 21.1317 24.4396C21.5969 23.9669 22.0857 23.5179 22.5962 23.0942C23.3297 22.4971 24.0258 21.8559 24.6807 21.1742L25.0175 20.8043Z" fill="url(#paint6_linear_123_9717)"/>
<path style="mix-blend-mode:multiply" d="M26.1678 33.3396C26.174 34.0893 25.9029 34.8151 25.4062 35.3784C25.1089 35.7289 24.741 36.0131 24.3262 36.2126C23.9114 36.4121 23.4591 36.5224 22.9987 36.5363C21.0541 36.5363 18.2736 34.6437 18.2736 34.6437C18.2736 34.6437 15.9318 36.4743 13.5882 36.4743C13.127 36.4787 12.6701 36.3855 12.2477 36.2011C11.8253 36.0166 11.4469 35.745 11.1376 35.4042C10.6727 34.8615 10.4265 34.1663 10.4468 33.4532C10.4468 29.5993 13.6763 26.1859 15.9939 24.2314C16.0146 24.2122 16.0365 24.1944 16.0596 24.1781C17.0738 25.1457 17.97 26.2291 18.7295 27.4057C19.2712 26.5585 19.8898 25.7626 20.5774 25.028C20.7501 24.8405 20.9332 24.6443 21.1284 24.4482C23.37 26.2857 26.1281 29.3688 26.1678 33.3396Z" fill="url(#paint7_linear_123_9717)"/>
<path d="M20.9191 11.9131C20.9191 11.9131 20.9191 11.9131 20.9089 11.9131C20.9089 11.9131 20.915 11.909 20.9191 11.9131Z" fill="#F9ED32"/>
<path d="M47.0732 11.1368C47.0555 11.4789 47.0005 11.8182 46.9091 12.1484C46.7986 12.5958 46.6622 13.1119 46.4964 13.6969C46.3306 14.2818 46.151 14.9167 45.9576 15.6014C45.7641 16.2862 45.5932 16.9812 45.4205 17.6866C45.2478 18.392 45.1165 19.0854 45.0077 19.7667C44.9036 20.3923 44.8488 21.0251 44.8436 21.6592C44.8412 22.1066 44.8729 22.5535 44.9386 22.996C44.9891 23.3662 45.0878 23.7283 45.2322 24.073C45.3418 24.3473 45.5118 24.5937 45.7296 24.7939C45.9238 24.9663 46.1759 25.0597 46.4359 25.0554C46.7173 25.0524 46.9919 24.9688 47.2269 24.8146C47.5074 24.632 47.7579 24.4074 47.9695 24.1487C48.2308 23.8348 48.4621 23.4973 48.6603 23.1405C48.8791 22.7506 49.0898 22.3285 49.2924 21.8743C49.4962 21.4201 49.6862 20.9435 49.8658 20.4428C50.0454 19.9422 50.2112 19.4346 50.3735 18.9254C50.9833 16.9074 51.4786 14.8568 51.857 12.7833C51.9214 12.4709 52.0162 12.1655 52.1403 11.8714C52.2322 11.6494 52.3666 11.4473 52.5358 11.2762C52.6866 11.1298 52.8709 11.0223 53.0729 10.963C53.3027 10.8991 53.5406 10.8684 53.7792 10.8719C53.9899 10.867 54.2002 10.8908 54.4044 10.9424C54.545 10.9776 54.6767 11.0415 54.7912 11.1299C54.8846 11.205 54.9551 11.3045 54.995 11.4172C55.0371 11.5383 55.0576 11.6659 55.0555 11.794C55.0555 11.8405 55.0296 12.0349 54.976 12.3738C54.9225 12.7128 54.8551 13.1515 54.7722 13.6831C54.6893 14.2147 54.5995 14.8186 54.5028 15.493C54.4061 16.1675 54.3163 16.8591 54.2334 17.5696C54.1505 18.2802 54.0832 18.9839 54.0296 19.6772C53.9761 20.3706 53.9502 21.0089 53.9502 21.5904C53.9502 22.1719 53.9726 22.7225 54.0141 23.2025C54.0468 23.617 54.1202 24.0273 54.2334 24.4274C54.3079 24.7113 54.4447 24.9752 54.6341 25.1999C54.711 25.2863 54.8058 25.355 54.9119 25.4014C55.0181 25.4477 55.133 25.4705 55.2489 25.4683C55.4645 25.4659 55.6775 25.4208 55.8756 25.3357C56.0736 25.2507 56.2527 25.1273 56.4025 24.9728C56.7906 24.5863 57.1121 24.1387 57.3541 23.6481C57.6685 23.0327 57.9274 22.3907 58.1278 21.7297C58.4057 20.7945 58.6305 19.8445 58.8014 18.8841C59.0224 17.7142 59.1347 17.1292 59.133 17.1309L59.3661 15.2195C59.5192 13.9452 59.6252 13.0712 59.6839 12.5975C59.7426 12.1238 59.7875 11.7533 59.8186 11.4861C59.8263 11.2387 59.8952 10.997 60.0189 10.7824C60.1234 10.6107 60.2702 10.4686 60.4455 10.3695C60.6283 10.2684 60.8287 10.203 61.0361 10.1768C61.2597 10.1441 61.4854 10.128 61.7114 10.1286C61.8774 10.1273 62.043 10.1441 62.2053 10.1785C62.3437 10.2088 62.4742 10.2674 62.5887 10.3505C62.6982 10.4324 62.784 10.5416 62.8374 10.6671C62.8994 10.832 62.9287 11.0073 62.9238 11.1833C62.9179 11.8331 62.8602 12.4815 62.7511 13.1222C62.6359 13.8276 62.4937 14.5353 62.3245 15.2453C62.1537 15.9351 62.0451 16.6387 61.9998 17.3477C61.9599 18.025 61.8202 18.6928 61.5853 19.3297C61.3875 19.8396 61.2259 20.3628 61.1018 20.8953C61.038 21.1594 60.9952 21.428 60.974 21.6988C60.9685 21.973 61.0058 22.2463 61.0845 22.5091C61.1457 22.7109 61.2454 22.899 61.3781 23.0631C61.4939 23.2044 61.6444 23.3134 61.815 23.3797C61.989 23.4443 62.1733 23.477 62.359 23.476C62.5637 23.4731 62.7655 23.4274 62.9514 23.3418C63.163 23.2478 63.3592 23.1225 63.5334 22.9702C63.7296 22.803 63.9037 22.6116 64.0515 22.4007C64.2125 22.1716 64.3447 21.9238 64.4453 21.6627L64.618 23.698C64.1751 24.1803 63.6636 24.5953 63.0999 24.9298C62.6589 25.2061 62.1525 25.3616 61.6319 25.3806C61.4226 25.3819 61.2143 25.3493 61.0154 25.2842C60.8237 25.2214 60.6473 25.1194 60.4973 24.9849C60.3389 24.8366 60.2121 24.6582 60.1243 24.4601C60.0178 24.2176 59.948 23.9608 59.917 23.698C59.6057 24.2335 59.2492 24.7417 58.8515 25.2171C58.4942 25.6463 58.0885 26.033 57.6425 26.3699C57.2344 26.6779 56.7836 26.9254 56.3041 27.1045C55.8428 27.2757 55.3544 27.3631 54.8621 27.3626C54.2874 27.3791 53.7236 27.2048 53.2594 26.8671C52.7989 26.5104 52.4316 26.0482 52.1886 25.5199C51.8943 24.8836 51.6925 24.2087 51.5894 23.5156C51.4602 22.7059 51.3972 21.8872 51.4011 21.0674C51.3997 20.769 51.4159 20.4709 51.4495 20.1744C51.484 19.8974 51.5099 19.6497 51.5306 19.4312C51.3464 20.7176 51.0447 21.9845 50.6291 23.2162C50.3406 24.0948 49.9101 24.9206 49.3546 25.661C48.9197 26.2347 48.344 26.6873 47.6829 26.9755C47.0189 27.2403 46.3083 27.3696 45.5932 27.3557C45.1396 27.351 44.6997 27.2001 44.3394 26.9256C43.8946 26.5835 43.5352 26.1437 43.2893 25.6404C42.95 24.9646 42.7053 24.2456 42.5623 23.5036C42.3666 22.5162 42.2746 21.5111 42.2877 20.5048C42.2885 19.784 42.3289 19.0637 42.4086 18.3473C42.488 17.6109 42.6031 16.8723 42.754 16.1313C42.9048 15.3904 43.0901 14.6586 43.3101 13.936C43.53 13.2077 43.7787 12.5006 44.0561 11.8147C44.187 11.4972 44.3551 11.1963 44.557 10.9183C44.6949 10.7293 44.8671 10.5677 45.0647 10.4417C45.2223 10.3448 45.399 10.2826 45.5828 10.2594C45.7599 10.2387 45.9381 10.2283 46.1165 10.2284C46.2495 10.2274 46.3824 10.2378 46.5137 10.2594C46.6238 10.2758 46.7281 10.319 46.8176 10.385C46.9051 10.4558 46.9704 10.5501 47.0059 10.6568C47.0553 10.8119 47.0781 10.9742 47.0732 11.1368Z" fill="#3A3A3C"/>
<path d="M66.6852 26.4108C66.1241 26.4229 65.5678 26.3052 65.0601 26.0667C64.6086 25.8487 64.2115 25.5331 63.8978 25.1428C63.5845 24.743 63.3501 24.2877 63.207 23.8009C63.0506 23.2819 62.9726 22.7427 62.9756 22.2008C62.9873 21.7584 63.057 21.3194 63.1829 20.895C63.321 20.3892 63.4661 19.9401 63.6146 19.5479C63.762 19.1567 63.9489 18.7814 64.1724 18.4278C64.3905 18.0802 64.6555 17.7642 64.9599 17.4885C65.2594 17.2199 65.6013 17.0025 65.972 16.845C66.3649 16.6808 66.7876 16.5988 67.2137 16.6041C67.5667 16.599 67.9177 16.6572 68.2499 16.7762C68.5574 16.8875 68.8402 17.0576 69.0823 17.2768C69.3203 17.493 69.5087 17.7576 69.635 18.0528C69.7718 18.3754 69.84 18.7228 69.8353 19.073C69.8137 19.5489 69.675 20.0121 69.4312 20.4219C69.182 20.892 68.8642 21.3228 68.4882 21.7002C68.1061 22.0734 67.675 22.3934 67.2068 22.6516C66.6989 22.9338 66.1576 23.1517 65.5955 23.3002C65.6813 23.454 65.7801 23.6002 65.8908 23.7372C65.9741 23.8429 66.0738 23.9347 66.1861 24.009C66.2818 24.0718 66.3875 24.1178 66.4987 24.145C66.6154 24.1712 66.7348 24.1839 66.8545 24.1828C67.2843 24.1769 67.71 24.0984 68.1135 23.9506C68.5587 23.7934 68.9897 23.5988 69.4018 23.369C69.813 23.141 70.2088 22.8864 70.5866 22.6069C70.9178 22.3667 71.2339 22.1064 71.533 21.8275L72.8161 23.1264C72.2468 23.734 71.6205 24.2859 70.9458 24.7747C70.6608 24.9794 70.3551 25.1807 70.0253 25.3785C69.6922 25.5741 69.3459 25.7465 68.9891 25.8947C68.6255 26.049 68.2494 26.1721 67.8648 26.2629C67.4787 26.3575 67.0828 26.4072 66.6852 26.4108ZM65.3572 21.6881C65.6274 21.6832 65.8939 21.6247 66.1412 21.5161C66.423 21.3966 66.6882 21.2417 66.9305 21.055C67.2028 20.8375 67.4435 20.5833 67.6455 20.2997C67.8786 19.9831 67.9909 19.7199 67.9909 19.5135C68.0004 19.2641 67.9438 19.0166 67.8268 18.796C67.7915 18.7167 67.7349 18.6486 67.6633 18.5991C67.5918 18.5496 67.5079 18.5208 67.4209 18.5156C67.1845 18.5064 66.9492 18.552 66.7334 18.6487C66.5177 18.7454 66.3274 18.8907 66.1775 19.073C66.0391 19.2425 65.9278 19.4323 65.8476 19.6356C65.7647 19.8455 65.6686 20.1053 65.5592 20.415C65.4638 20.6616 65.4011 20.9195 65.3727 21.1823C65.3641 21.375 65.3572 21.5471 65.3572 21.6881Z" fill="#3A3A3C"/>
<path d="M73.0613 26.4109C72.8723 26.4058 72.6863 26.3621 72.5149 26.2825C72.3435 26.2029 72.1903 26.0891 72.0649 25.9481C71.7226 25.5856 71.4504 25.1633 71.2618 24.7025C71.0149 24.1214 70.8353 23.5142 70.7264 22.8926C70.5948 22.1798 70.5301 21.4564 70.533 20.7316C70.5561 19.8592 70.652 18.9903 70.8197 18.1337C71.012 17.0498 71.1075 16.5079 71.1064 16.5079L71.5416 14.8855C71.766 13.9971 72.0575 13.1269 72.4137 12.2824C72.693 11.6537 73.0102 11.0424 73.3636 10.4518C73.6741 9.9253 74.0325 9.42829 74.4343 8.96705C74.7719 8.5765 75.1687 8.24096 75.6104 7.97262C75.9852 7.74117 76.4164 7.61623 76.8573 7.61132C77.1215 7.59985 77.3839 7.65927 77.6172 7.78337C77.8155 7.89737 77.9804 8.06108 78.0956 8.25822C78.2131 8.46 78.2943 8.68066 78.3356 8.91028C78.3818 9.149 78.4055 9.39149 78.4064 9.63459C78.4045 10.2775 78.3298 10.9181 78.1837 11.5443C78.03 12.2091 77.8292 12.8623 77.5827 13.4988C77.3259 14.1594 77.0346 14.8212 76.7088 15.4842C76.383 16.1472 76.0376 16.7998 75.6726 17.4421C75.3134 18.0901 74.9524 18.7284 74.5897 19.357C74.2271 19.9855 73.8932 20.5997 73.5881 21.1996C73.5475 21.2839 73.5124 21.3707 73.4827 21.4594C73.4465 21.5661 73.4119 21.6813 73.3774 21.8035C73.3428 21.9256 73.3118 22.0581 73.2789 22.1975C73.2461 22.3368 73.2185 22.4745 73.1978 22.607V22.748C73.1977 22.9176 73.2162 23.0866 73.253 23.2521C73.2854 23.4025 73.3304 23.5498 73.3877 23.6926C73.4313 23.803 73.4893 23.9071 73.5604 24.0023C73.6209 24.0797 73.6779 24.1175 73.7331 24.1175C73.8843 24.114 74.034 24.0873 74.177 24.0384C74.3583 23.9784 74.5354 23.9066 74.7072 23.8233C74.8937 23.7321 75.0854 23.6289 75.2823 23.5119C75.4792 23.3949 75.6691 23.2779 75.8522 23.1575C76.2805 22.8771 76.7295 22.5553 77.1975 22.1872L78.0766 24.2775C77.4687 24.6801 76.8677 25.0386 76.2736 25.3528C76.0134 25.4836 75.7451 25.6138 75.4688 25.7434C75.1925 25.873 74.9138 25.9877 74.6329 26.0875C74.3648 26.1848 74.0908 26.2653 73.8126 26.3283C73.566 26.3837 73.3141 26.4114 73.0613 26.4109ZM73.07 18.5518C73.3705 18.0185 73.6888 17.418 74.025 16.7505C74.3612 16.0829 74.679 15.3947 74.9783 14.6859C75.2777 13.9805 75.5373 13.2757 75.7572 12.5714C75.9631 11.9322 76.1037 11.274 76.1769 10.6067C76.1769 10.414 76.1717 10.2488 76.1613 10.1112C76.1527 9.97525 76.1233 9.90643 76.0715 9.90643C75.8902 9.90643 75.6933 10.032 75.4826 10.2832C75.2322 10.5972 75.02 10.9397 74.8505 11.3035C74.546 11.9826 74.2914 12.683 74.0889 13.399L73.6572 14.8476C73.6572 14.8476 73.5708 15.2949 73.3981 16.1913C73.2327 16.9694 73.123 17.7582 73.07 18.5518Z" fill="#3A3A3C"/>
<path d="M78.4168 26.411C78.2276 26.4055 78.0415 26.3616 77.8699 26.282C77.6982 26.2024 77.5447 26.0889 77.4186 25.9482C77.0764 25.5857 76.8041 25.1634 76.6155 24.7026C76.3694 24.1212 76.1898 23.5141 76.0801 22.8927C75.9494 22.1798 75.8846 21.4564 75.8867 20.7318C75.9105 19.8593 76.007 18.9904 76.1751 18.1338C76.3651 17.05 76.4618 16.508 76.4618 16.508L76.897 14.8856C77.1206 13.997 77.4122 13.1268 77.7691 12.2825C78.0478 11.6535 78.365 11.0421 78.719 10.4519C79.0278 9.92473 79.3858 9.42762 79.788 8.96717C80.1256 8.57662 80.5224 8.24109 80.9641 7.97274C81.3384 7.74159 81.769 7.61666 82.2093 7.61144C82.474 7.60025 82.7369 7.65964 82.9709 7.78349C83.1698 7.89678 83.3349 8.06065 83.4493 8.25834C83.5674 8.46002 83.6492 8.68068 83.6911 8.9104C83.7367 9.14917 83.7598 9.39166 83.7602 9.63472C83.7582 10.2776 83.6835 10.9182 83.5374 11.5444C83.3843 12.2092 83.184 12.8624 82.9381 13.4989C82.686 14.155 82.3941 14.8116 82.0625 15.4688C81.7309 16.1261 81.3855 16.7787 81.0263 17.4267C80.6694 18.0748 80.309 18.7131 79.9452 19.3416C79.5814 19.9702 79.2469 20.5844 78.9418 21.1842C78.9019 21.2686 78.8673 21.3554 78.8382 21.444C78.8019 21.5507 78.7656 21.666 78.7328 21.7881C78.7 21.9103 78.6672 22.0428 78.6327 22.1821C78.5981 22.3215 78.5739 22.4591 78.5532 22.5916V22.7327C78.5531 22.9022 78.5716 23.0712 78.6085 23.2368C78.6408 23.3871 78.6859 23.5345 78.7432 23.6772C78.786 23.7879 78.8441 23.8922 78.9159 23.9869C78.9763 24.0643 79.0333 24.1022 79.0886 24.1022C79.2398 24.0988 79.3895 24.0721 79.5324 24.023C79.7138 23.9633 79.891 23.8915 80.0626 23.808C80.2491 23.7168 80.4408 23.6136 80.6377 23.4966C80.8346 23.3796 81.0263 23.2626 81.2094 23.1421C81.6377 22.8617 82.085 22.54 82.5547 22.1718L83.4338 24.2622C82.8247 24.6648 82.2231 25.0232 81.629 25.3375C81.37 25.4682 81.1006 25.599 80.8242 25.728C80.5479 25.857 80.2699 25.9723 79.9884 26.0721C79.7208 26.1694 79.4474 26.2499 79.1698 26.313C78.9232 26.3736 78.6707 26.4065 78.4168 26.411ZM78.4254 18.5519C78.7259 18.0186 79.0437 17.4181 79.3787 16.7506C79.7138 16.083 80.0315 15.3949 80.332 14.686C80.627 13.9946 80.887 13.2889 81.1109 12.5716C81.3168 11.9324 81.4574 11.2741 81.5306 10.6068C81.5306 10.4141 81.5306 10.2489 81.5168 10.1113C81.503 9.97365 81.477 9.90655 81.427 9.90655C81.2439 9.90655 81.0487 10.0321 80.8381 10.2833C80.5876 10.5973 80.3754 10.9398 80.206 11.3036C79.9032 11.981 79.651 12.6796 79.4513 13.3939C79.1577 14.3591 79.0126 14.8426 79.0126 14.8426C79.0126 14.8426 78.9245 15.2951 78.7518 16.1914C78.5861 16.9694 78.477 17.7583 78.4254 18.5519Z" fill="#3A3A3C"/>
<path d="M81.5617 24.3395C81.5617 23.9025 81.5882 23.3984 81.6412 22.8272C81.6941 22.256 81.7603 21.6252 81.8398 20.9347C81.9192 20.2465 82.009 19.63 82.1092 19.0852C82.2093 18.5404 82.3055 18.0707 82.3976 17.6761C82.4625 17.387 82.6094 17.1225 82.8207 16.914C82.9346 16.8083 83.0687 16.7266 83.215 16.6737C83.3612 16.6208 83.5167 16.5978 83.6721 16.606C84.0302 16.606 84.2789 16.715 84.4182 16.9329C84.5689 17.1983 84.6413 17.5006 84.6272 17.8052C84.6246 17.9399 84.6142 18.0743 84.5961 18.2078C84.5771 18.3798 84.5512 18.5605 84.5218 18.7635C84.4925 18.9665 84.4596 19.173 84.4268 19.388C84.394 19.6031 84.3629 19.8474 84.3336 20.1209C84.3042 20.3945 84.2783 20.6009 84.2576 20.7351C84.2429 20.8257 84.233 20.917 84.2282 21.0087H84.4268L84.6168 20.6646C84.7307 20.4381 84.8305 20.2048 84.9156 19.9661C85.0162 19.688 85.1374 19.4177 85.2782 19.1575C85.4083 18.9281 85.5292 18.7033 85.6409 18.483C85.7549 18.2697 85.8568 18.0787 85.9501 17.9136C86.0433 17.7484 86.1124 17.6262 86.159 17.5471C86.3237 17.2364 86.5766 16.9809 86.8861 16.8125C87.1689 16.6777 87.4793 16.61 87.7928 16.6146C87.9494 16.6118 88.1041 16.6487 88.2425 16.7218C88.3809 16.7949 88.4983 16.9019 88.5837 17.0327C88.7971 17.3775 88.899 17.7793 88.8756 18.1837C88.8703 18.3067 88.8559 18.4292 88.8324 18.5501C88.8014 18.7222 88.7634 18.9269 88.7167 19.1643C88.6701 19.4018 88.62 19.7097 88.563 20.0865C88.506 20.4633 88.456 20.8005 88.4076 21.0982C88.3592 21.3958 88.323 21.69 88.2936 21.9808C88.2643 22.2715 88.2504 22.5382 88.2504 22.7825C88.2398 23.1263 88.2925 23.4692 88.4059 23.7941C88.5078 24.0574 88.6701 24.1898 88.8877 24.1898C89.0074 24.1817 89.1246 24.1514 89.2331 24.1004C89.3842 24.0576 89.526 23.987 89.651 23.8922C89.7938 23.7694 89.9476 23.66 90.1104 23.5653C90.3425 23.45 90.5654 23.3172 90.7771 23.1679C91.3067 22.833 91.9399 22.4201 92.6768 21.9291L92.6664 24.1503L92.169 24.5271C92.131 24.5597 91.8236 24.7318 91.2347 25.0432C90.3919 25.4917 89.864 25.7624 89.651 25.8553C89.3371 26.0061 89.0148 26.1388 88.6856 26.2527C88.3478 26.3597 87.9953 26.4131 87.6408 26.411C87.2758 26.411 86.969 26.1483 86.7203 25.623C86.4716 25.0977 86.3473 24.3292 86.3473 23.3176C86.3489 22.8886 86.3755 22.46 86.4267 22.0341C86.4808 21.5753 86.547 21.081 86.6253 20.551H86.4664L83.8586 25.7125C83.7643 25.9355 83.6094 26.1279 83.4113 26.2682C83.2758 26.3544 83.123 26.4102 82.9637 26.432C82.8043 26.4537 82.6422 26.4407 82.4883 26.3939C82.3345 26.3471 82.1927 26.2677 82.0727 26.161C81.9527 26.0544 81.8573 25.923 81.7931 25.7761C81.7018 25.5649 81.6436 25.3409 81.6204 25.112C81.5856 24.8559 81.566 24.598 81.5617 24.3395Z" fill="#3A3A3C"/>
<path d="M94.554 26.4113C93.9929 26.4234 93.4366 26.3056 92.9289 26.0672C92.477 25.8496 92.0799 25.5339 91.7666 25.1433C91.4527 24.7439 91.2182 24.2884 91.0758 23.8013C90.9203 23.2822 90.8423 22.743 90.8444 22.2013C90.8561 21.7589 90.9258 21.3199 91.0516 20.8954C91.1921 20.3896 91.336 19.9406 91.4834 19.5483C91.6308 19.1571 91.8177 18.7818 92.0412 18.4283C92.2593 18.0807 92.5243 17.7646 92.8287 17.4889C93.1275 17.2199 93.4689 17.0019 93.839 16.8437C94.232 16.6795 94.6547 16.5975 95.0808 16.6029C95.4337 16.5977 95.7848 16.656 96.117 16.7749C96.4245 16.8862 96.7073 17.0563 96.9494 17.2756C97.1866 17.4924 97.375 17.7568 97.502 18.0515C97.6389 18.3741 97.7071 18.7215 97.7024 19.0717C97.6808 19.5476 97.542 20.0108 97.2983 20.4206C97.0491 20.8908 96.7313 21.3216 96.3553 21.6989C95.9731 22.0721 95.5421 22.3921 95.0739 22.6503C94.566 22.9325 94.0247 23.1504 93.4626 23.2989C93.5484 23.4527 93.6472 23.5989 93.7579 23.7359C93.8418 23.8404 93.9408 23.932 94.0515 24.0078C94.1483 24.0706 94.2552 24.1165 94.3675 24.1437C94.4808 24.1693 94.5967 24.182 94.7129 24.1815C95.1428 24.176 95.5685 24.0974 95.9719 23.9493C96.4172 23.7924 96.8483 23.5979 97.2603 23.3678C97.6714 23.1397 98.0672 22.8851 98.445 22.6056C98.7762 22.3654 99.0923 22.1051 99.3914 21.8262L100.675 23.1252C100.109 23.7323 99.4866 24.2848 98.8163 24.7751C98.5296 24.9798 98.2239 25.1811 97.8941 25.379C97.561 25.5745 97.2147 25.747 96.8579 25.8951C96.4944 26.0497 96.1182 26.1728 95.7336 26.2633C95.3475 26.3579 94.9516 26.4076 94.554 26.4113ZM93.226 21.6886C93.4962 21.6836 93.7627 21.6251 94.01 21.5165C94.2918 21.3971 94.557 21.2421 94.7993 21.0554C95.0716 20.838 95.3123 20.5838 95.5142 20.3001C95.7474 19.9836 95.8596 19.7204 95.8596 19.5139C95.8666 19.2638 95.807 19.0163 95.6869 18.7965C95.6518 18.7174 95.5955 18.6494 95.5242 18.6C95.453 18.5505 95.3695 18.5215 95.2828 18.516C95.0461 18.5066 94.8105 18.552 94.5944 18.6487C94.3783 18.7455 94.1877 18.8909 94.0376 19.0735C93.8992 19.2429 93.788 19.4327 93.7078 19.636C93.6249 19.8459 93.5288 20.1057 93.4194 20.4154C93.3235 20.6618 93.2614 20.9199 93.2346 21.1828C93.2329 21.3754 93.226 21.5475 93.226 21.6886Z" fill="#3A3A3C"/>
<path d="M98.4398 22.6692C98.8128 22.3492 99.1133 22.0808 99.3464 21.8674C99.594 21.635 99.8249 21.3855 100.037 21.1207C100.27 20.8369 100.453 20.6046 100.59 20.424L101.073 19.7822L101.75 18.8755C102.015 18.5177 102.361 18.0715 102.787 17.537C102.876 17.4165 102.972 17.3015 103.075 17.1929C103.179 17.0797 103.295 16.9777 103.42 16.8884C103.553 16.7962 103.697 16.7216 103.849 16.6664C104.015 16.6093 104.191 16.5808 104.367 16.5821C104.617 16.5712 104.867 16.6068 105.104 16.6871C105.25 16.7386 105.381 16.8269 105.483 16.9434C105.558 17.0334 105.606 17.1424 105.622 17.2583C105.634 17.3531 105.64 17.4484 105.641 17.5439C105.631 17.7354 105.566 17.9199 105.453 18.0755C105.325 18.2709 105.185 18.4582 105.034 18.6364C104.882 18.8084 104.736 18.9805 104.602 19.1336C104.501 19.2312 104.421 19.3483 104.367 19.4777C104.365 19.6674 104.381 19.8568 104.414 20.0437C104.443 20.213 104.484 20.3802 104.534 20.5444C104.584 20.7164 104.638 20.8885 104.692 21.0605C104.745 21.2326 104.799 21.4562 104.847 21.6971C104.9 22.0255 104.907 22.3595 104.868 22.6898C104.831 23.1113 104.812 23.5346 104.812 23.963C105.058 23.798 105.316 23.652 105.584 23.526L106.448 23.1199C106.747 22.98 107.055 22.8246 107.37 22.6537C107.702 22.4727 108.02 22.2668 108.32 22.0378L108.33 24.283C107.881 24.6119 107.403 24.8998 106.902 25.1432C106.349 25.4161 105.779 25.6529 105.196 25.852C104.606 26.0539 104.002 26.2148 103.389 26.3338C102.821 26.4467 102.242 26.5043 101.662 26.5058C101.295 26.5084 100.929 26.4732 100.569 26.4009C100.256 26.3417 99.9549 26.2313 99.678 26.074C99.4275 25.9305 99.2141 25.7308 99.0546 25.4907C98.8885 25.2277 98.7895 24.9283 98.7662 24.6185C98.6765 24.6391 98.5852 24.6523 98.4933 24.658C98.4035 24.6649 98.3154 24.6684 98.2291 24.6684C98.1237 24.6684 98.0236 24.6684 97.9303 24.658C97.8456 24.655 97.7634 24.6294 97.692 24.5841C97.618 24.5319 97.5624 24.4578 97.5331 24.3724C97.4871 24.2392 97.4666 24.0986 97.4726 23.9578C97.4715 23.8008 97.5127 23.6463 97.5918 23.5105C97.6689 23.3774 97.7629 23.2548 97.8716 23.1457C97.9705 23.0447 98.0767 22.9509 98.1893 22.8653C98.2999 22.7793 98.381 22.7105 98.4398 22.6692ZM99.6832 23.9509C99.7348 23.9576 99.7846 23.9744 99.8297 24.0004C99.8748 24.0264 99.9142 24.0611 99.9457 24.1023C100.042 24.2021 100.153 24.3122 100.281 24.4327C100.414 24.5586 100.561 24.6699 100.718 24.7647C100.89 24.8661 101.086 24.9179 101.286 24.9144C101.507 24.9225 101.727 24.8777 101.927 24.7836C102.088 24.7045 102.227 24.5862 102.331 24.4395C102.433 24.2883 102.504 24.118 102.54 23.9389C102.58 23.7424 102.599 23.5424 102.598 23.3419C102.599 23.1578 102.587 22.9739 102.564 22.7913C102.542 22.5594 102.545 22.3257 102.574 22.0945C102.606 21.8811 102.599 21.6637 102.554 21.4528C102.51 21.3031 102.472 21.1741 102.44 21.0674L99.6832 23.9509Z" fill="#3A3A3C"/>
<path d="M107.013 22.6689C107.386 22.3489 107.686 22.0805 107.919 21.8672C108.167 21.6348 108.398 21.3853 108.61 21.1205C108.843 20.8366 109.026 20.6043 109.163 20.4237L109.646 19.782L110.323 18.8753C110.587 18.5174 110.932 18.0712 111.36 17.5367C111.448 17.4158 111.544 17.3009 111.648 17.1927C111.752 17.0795 111.868 16.9774 111.993 16.8881C112.128 16.7933 112.274 16.7163 112.429 16.6593C112.595 16.6024 112.77 16.5739 112.947 16.575C113.197 16.564 113.447 16.5996 113.684 16.6799C113.83 16.7314 113.961 16.8198 114.062 16.9363C114.138 17.0259 114.186 17.1352 114.201 17.2511C114.213 17.3458 114.22 17.4412 114.221 17.5367C114.21 17.7281 114.145 17.9124 114.033 18.0684C113.905 18.2638 113.765 18.4511 113.613 18.6292C113.461 18.8013 113.316 18.9733 113.182 19.1265C113.081 19.2241 113.001 19.3412 112.947 19.4706C112.946 19.6602 112.961 19.8495 112.992 20.0366C113.023 20.2057 113.064 20.3729 113.114 20.5372C113.164 20.7093 113.218 20.8813 113.271 21.0534C113.325 21.2254 113.378 21.4491 113.427 21.69C113.48 22.0183 113.487 22.3524 113.448 22.6827C113.411 23.1042 113.392 23.5274 113.392 23.9558C113.638 23.7905 113.896 23.6444 114.164 23.5188L115.028 23.1128C115.326 22.9729 115.633 22.8174 115.948 22.6465C116.281 22.4656 116.599 22.2597 116.9 22.0306L116.91 24.2758C116.461 24.6047 115.983 24.8926 115.482 25.1361C114.929 25.4087 114.359 25.6454 113.776 25.8449C113.185 26.0467 112.582 26.2077 111.969 26.3266C111.4 26.4395 110.822 26.4971 110.242 26.4987C109.875 26.5012 109.508 26.4661 109.147 26.3937C108.835 26.3349 108.534 26.2244 108.258 26.0668C108.007 25.9234 107.794 25.7237 107.634 25.4836C107.468 25.2206 107.369 24.9212 107.346 24.6113C107.256 24.6318 107.165 24.6451 107.073 24.6509C106.983 24.6578 106.895 24.6612 106.809 24.6612C106.704 24.6612 106.603 24.6612 106.51 24.6509C106.425 24.6478 106.343 24.6223 106.272 24.5769C106.198 24.5247 106.142 24.4507 106.113 24.3653C106.067 24.2321 106.046 24.0914 106.052 23.9507C106.051 23.7936 106.093 23.6392 106.172 23.5033C106.249 23.3707 106.342 23.2481 106.45 23.1386C106.55 23.0379 106.656 22.9442 106.769 22.8582C106.88 22.779 106.961 22.7102 107.013 22.6689ZM108.256 23.9507C108.308 23.9574 108.358 23.9742 108.403 24.0002C108.448 24.0262 108.487 24.0608 108.519 24.1021C108.615 24.2019 108.726 24.312 108.852 24.4324C108.986 24.5583 109.133 24.6696 109.291 24.7644C109.462 24.8658 109.658 24.9176 109.857 24.9141C110.079 24.9225 110.299 24.8777 110.5 24.7834C110.661 24.7047 110.799 24.5863 110.902 24.4393C111.006 24.2885 111.078 24.1181 111.113 23.9386C111.153 23.7422 111.172 23.5421 111.171 23.3416C111.171 23.1576 111.159 22.9737 111.137 22.7911C111.115 22.5591 111.118 22.3255 111.147 22.0943C111.179 21.8809 111.172 21.6634 111.126 21.4525C111.083 21.3029 111.045 21.1738 111.012 21.0672L108.256 23.9507Z" fill="#3A3A3C"/>
<path d="M113.043 23.3347C113.13 23.2745 113.277 23.1764 113.482 23.0388L114.211 22.5519C114.491 22.3644 114.793 22.1579 115.114 21.9342C115.435 21.7106 115.755 21.4852 116.067 21.2564L116.147 20.5682C116.276 19.2578 116.513 17.9603 116.855 16.6885C117.149 15.5955 117.534 14.5286 118.005 13.4988C118.403 12.6244 118.887 11.7912 119.449 11.011C119.915 10.3607 120.45 9.76152 121.043 9.2234C121.521 8.78715 122.061 8.42416 122.646 8.14638C123.108 7.92433 123.612 7.80292 124.126 7.79025C124.447 7.78656 124.766 7.8523 125.06 7.98294C125.346 8.11454 125.597 8.3128 125.79 8.56102C126.009 8.84958 126.17 9.17641 126.267 9.52448C126.39 9.96403 126.448 10.4189 126.44 10.8751C126.434 11.5373 126.34 12.1958 126.158 12.833C125.96 13.5448 125.693 14.2362 125.362 14.8975C125.001 15.621 124.587 16.3173 124.124 16.981C123.635 17.6826 123.101 18.3515 122.525 18.9836C121.933 19.6323 121.298 20.241 120.625 20.8056C119.961 21.3682 119.256 21.8801 118.515 22.3368C118.515 22.7463 118.501 23.2355 118.475 23.8044C118.468 24.0453 118.463 24.2276 118.459 24.3515C118.459 24.4754 118.459 24.5597 118.459 24.6061V24.718C118.458 24.7772 118.47 24.8359 118.494 24.89C118.525 24.9454 118.574 24.9881 118.634 25.0105C118.725 25.0454 118.821 25.0691 118.919 25.081C119.078 25.0989 119.238 25.1069 119.399 25.1051C119.692 25.1051 120.09 24.9709 120.608 24.699L123.941 23.7459C123.994 23.7304 124.048 23.7206 124.103 23.7167C124.158 23.7167 124.209 23.7081 124.257 23.7081C124.408 23.7035 124.558 23.7366 124.694 23.8044C124.813 23.8666 124.917 23.9548 124.998 24.0625C125.082 24.1743 125.144 24.301 125.181 24.4358C125.221 24.5775 125.241 24.7239 125.241 24.8711C125.242 25.0048 125.222 25.1377 125.181 25.2651C125.141 25.3941 125.08 25.5156 124.999 25.6247C124.917 25.7381 124.814 25.8355 124.696 25.912C124.568 25.9964 124.424 26.0522 124.272 26.0754C123.613 26.2888 122.94 26.4809 122.254 26.6518L121.326 26.9167L120.359 27.192C120.03 27.2836 119.693 27.3413 119.352 27.3641C119.007 27.3881 118.672 27.4002 118.349 27.4002C117.932 27.4169 117.518 27.3343 117.14 27.1593C116.839 27.0112 116.583 26.7869 116.397 26.509C116.185 26.1463 116.055 25.7417 116.016 25.3236C115.947 24.8678 115.91 24.408 115.905 23.9472C115.329 24.3636 114.843 24.6939 114.447 24.9382C114.051 25.1825 113.795 25.3047 113.679 25.3047C113.561 25.3031 113.447 25.2625 113.354 25.1894C113.244 25.1049 113.147 25.0032 113.069 24.8883C112.981 24.759 112.913 24.6176 112.865 24.4685C112.817 24.3196 112.792 24.164 112.791 24.0074C112.791 23.8805 112.806 23.7539 112.836 23.6306C112.864 23.509 112.939 23.403 113.043 23.3347ZM118.696 19.8112C119.041 19.4568 119.395 19.0702 119.758 18.6516C120.121 18.2329 120.486 17.7942 120.855 17.3354C121.217 16.8766 121.567 16.4081 121.903 15.9298C122.239 15.4515 122.541 14.9744 122.81 14.4984C123.065 14.0545 123.292 13.5947 123.488 13.122C123.66 12.7136 123.779 12.2853 123.842 11.8471C123.861 11.7129 123.875 11.5839 123.882 11.46C123.889 11.3361 123.892 11.2209 123.892 11.1159C123.912 10.8292 123.859 10.5422 123.737 10.2815C123.699 10.2005 123.638 10.1321 123.562 10.0842C123.487 10.0364 123.399 10.0111 123.309 10.0114C123.028 10.0412 122.766 10.1621 122.561 10.3555C122.222 10.6359 121.92 10.9585 121.663 11.3155C121.312 11.7909 120.996 12.2911 120.718 12.8123C120.379 13.4477 120.083 14.1053 119.832 14.7805C119.545 15.5509 119.306 16.3388 119.119 17.1393C118.912 18.0183 118.771 18.9114 118.696 19.8112Z" fill="#3A3A3C"/>
<path d="M131.179 24.3001C130.896 24.5509 130.599 24.7841 130.288 24.9986C129.921 25.2545 129.537 25.4844 129.137 25.6868C128.731 25.8903 128.311 26.0628 127.878 26.203C127.486 26.3361 127.074 26.4064 126.659 26.4111C126.365 26.4183 126.072 26.3699 125.796 26.2683C125.575 26.1825 125.379 26.0443 125.224 25.8657C125.072 25.683 124.964 25.4674 124.91 25.2361C124.844 24.9687 124.812 24.6941 124.815 24.4188C124.821 23.9301 124.868 23.4427 124.955 22.9616C125.146 21.8146 125.268 21.1694 125.322 21.0261C125.413 20.7428 125.595 20.1171 125.867 19.149C126.119 18.3588 126.274 17.8426 126.333 17.6006C126.371 17.4244 126.467 17.2658 126.606 17.1498C126.743 17.0311 126.897 16.9337 127.063 16.8608C127.236 16.7829 127.416 16.7251 127.602 16.6887C127.767 16.6536 127.936 16.6351 128.105 16.6337C128.379 16.6337 128.564 16.6836 128.663 16.7868C128.713 16.8424 128.752 16.9073 128.777 16.9778C128.802 17.0484 128.813 17.1232 128.809 17.198C128.799 17.4065 128.765 17.6132 128.707 17.8139C128.638 18.0812 128.561 18.384 128.474 18.7223C128.386 19.0664 128.258 19.4983 128.087 20.0333C127.94 20.4795 127.825 20.9354 127.742 21.3977C127.678 21.7745 127.6 22.1495 127.505 22.5211C127.415 22.8516 127.367 23.192 127.362 23.5345C127.354 23.7747 127.387 24.0145 127.461 24.2433C127.49 24.3263 127.546 24.3971 127.62 24.4448C127.694 24.4925 127.782 24.5142 127.87 24.5066C128.151 24.4939 128.424 24.4085 128.663 24.2588C128.973 24.082 129.27 23.8818 129.55 23.6601C129.847 23.4261 130.139 23.1818 130.426 22.9306C130.713 22.6794 130.963 22.4644 131.182 22.2872L131.179 24.3001ZM126.728 13.893C126.734 13.7167 126.768 13.5424 126.828 13.3768C126.9 13.1761 127.01 12.991 127.151 12.8315C127.319 12.6487 127.522 12.5023 127.749 12.4013C128.043 12.2767 128.361 12.2179 128.68 12.2293C128.901 12.2276 129.122 12.2542 129.336 12.3084C129.528 12.3552 129.709 12.4362 129.871 12.5476C130.026 12.6609 130.151 12.8104 130.234 12.9829C130.328 13.1829 130.374 13.402 130.369 13.6229C130.369 13.8475 130.332 14.0708 130.26 14.2835C130.187 14.4964 130.07 14.6912 129.915 14.8547C129.743 15.0288 129.538 15.1668 129.312 15.2608C129.037 15.3695 128.744 15.4222 128.448 15.4156C127.865 15.4156 127.433 15.2768 127.155 14.9992C127.012 14.8537 126.9 14.6805 126.826 14.4902C126.753 14.2999 126.72 14.0966 126.728 13.893Z" fill="#3A3A3C"/>
<path d="M130.483 23.1989C130.462 22.7034 130.442 22.2721 130.422 21.9051C130.403 21.538 130.384 21.206 130.367 20.9089C130.35 20.6113 130.338 20.336 130.333 20.0848C130.327 19.8336 130.322 19.5687 130.322 19.3123C130.307 18.6798 130.34 18.0471 130.422 17.4198C130.49 17.0401 130.637 16.8331 130.861 16.7987L132.13 16.6112L132.225 16.5922H132.331C132.408 16.589 132.485 16.6055 132.554 16.6402C132.622 16.6748 132.681 16.7264 132.725 16.7901C132.817 16.9246 132.867 17.0832 132.87 17.246L132.681 23.82L132.749 23.8096L135.465 17.2047C135.488 17.1069 135.533 17.0153 135.595 16.9363C135.667 16.8472 135.755 16.772 135.854 16.7144C135.966 16.6495 136.084 16.5975 136.208 16.5596C136.342 16.5196 136.481 16.4999 136.621 16.5011C136.946 16.4854 137.268 16.5662 137.546 16.7333C137.651 16.7953 137.738 16.8831 137.798 16.9883C137.859 17.0935 137.891 17.2125 137.892 17.3338C137.891 17.5088 137.865 17.6828 137.812 17.8499C137.765 18.0382 137.698 18.2211 137.612 18.3953C137.439 18.7394 137.334 18.9476 137.294 19.0405C136.995 19.755 136.826 20.168 136.786 20.2792C136.747 20.3997 136.707 20.5218 136.667 20.6474C136.63 20.7726 136.602 20.9002 136.583 21.0293C136.559 21.1749 136.547 21.3223 136.548 21.4698C136.548 21.6271 136.568 21.7837 136.607 21.936C136.646 22.0863 136.718 22.2265 136.816 22.3472C136.926 22.4768 137.067 22.5772 137.225 22.6397C137.438 22.7192 137.665 22.756 137.892 22.7481C138.13 22.7403 138.364 22.6884 138.583 22.595C138.838 22.498 139.086 22.383 139.325 22.2509C139.597 22.0972 139.876 21.9251 140.161 21.7347V24.0643C139.735 24.3365 139.279 24.5593 138.802 24.7284C138.373 24.8864 137.921 24.9702 137.463 24.9761C137.135 24.9794 136.81 24.921 136.503 24.8041C136.238 24.7057 135.994 24.5561 135.787 24.3636C135.596 24.186 135.441 23.9741 135.329 23.7391C135.22 23.5127 135.161 23.2657 135.156 23.0148C134.963 23.4122 134.745 23.8182 134.5 24.2346C134.269 24.6265 134.015 25.004 133.738 25.3649C133.509 25.6674 133.248 25.9448 132.959 26.1925C132.769 26.3785 132.52 26.4928 132.255 26.5159C131.911 26.5376 131.571 26.4329 131.3 26.2217C131.07 26.0235 130.895 25.7692 130.794 25.4836C130.681 25.1702 130.61 24.8434 130.583 24.5116C130.55 24.1675 130.524 23.8234 130.502 23.5103L130.483 23.1989Z" fill="#3A3A3C"/>
<path d="M145.112 24.2997C144.831 24.5513 144.533 24.7846 144.221 24.9982C143.855 25.2549 143.47 25.4848 143.071 25.6864C142.665 25.8896 142.245 26.0621 141.814 26.2026C141.42 26.3358 141.008 26.406 140.593 26.4108C140.298 26.4178 140.005 26.3694 139.729 26.268C139.509 26.1821 139.312 26.0439 139.158 25.8654C139.006 25.6823 138.898 25.4668 138.843 25.2357C138.779 24.9681 138.747 24.6936 138.75 24.4184C138.756 23.9298 138.802 23.4424 138.888 22.9612C139.08 21.8142 139.204 21.1691 139.258 21.0257C139.348 20.7424 139.528 20.1167 139.8 19.1486C140.052 18.3584 140.208 17.8422 140.266 17.6002C140.305 17.4236 140.401 17.2648 140.541 17.1495C140.678 17.0304 140.832 16.9329 140.999 16.8604C141.17 16.7825 141.351 16.7248 141.536 16.6884C141.701 16.6533 141.87 16.6348 142.04 16.6333C142.313 16.6333 142.499 16.6832 142.596 16.7864C142.646 16.842 142.685 16.9069 142.711 16.9775C142.736 17.048 142.747 17.1228 142.743 17.1976C142.734 17.4063 142.699 17.613 142.641 17.8136C142.573 18.0808 142.495 18.3836 142.408 18.722C142.32 19.0603 142.191 19.4973 142.021 20.033C141.874 20.4791 141.758 20.935 141.676 21.3973C141.613 21.7735 141.534 22.148 141.439 22.5208C141.348 22.8512 141.3 23.1917 141.296 23.5341C141.287 23.7744 141.321 24.0144 141.396 24.243C141.424 24.3259 141.48 24.3969 141.554 24.4446C141.628 24.4924 141.716 24.514 141.803 24.5062C142.086 24.4933 142.36 24.4074 142.599 24.2567C142.909 24.0794 143.206 23.8793 143.485 23.658C143.784 23.424 144.076 23.1797 144.361 22.9285C144.646 22.6773 144.898 22.4623 145.117 22.2851L145.112 24.2997ZM140.663 13.8926C140.675 13.4991 140.824 13.1221 141.087 12.8276C141.253 12.6445 141.456 12.498 141.682 12.3975C141.976 12.273 142.294 12.2143 142.613 12.2255C142.835 12.2238 143.056 12.2504 143.271 12.3046C143.464 12.3534 143.646 12.4368 143.808 12.5506C143.963 12.6639 144.088 12.8134 144.171 12.9859C144.265 13.186 144.311 13.4051 144.306 13.6259C144.308 13.8478 144.274 14.0686 144.206 14.2797C144.133 14.4926 144.015 14.6874 143.86 14.8509C143.689 15.0257 143.484 15.1638 143.257 15.2569C142.983 15.3657 142.689 15.4183 142.394 15.4118C141.81 15.4118 141.379 15.273 141.1 14.9954C140.956 14.851 140.843 14.6787 140.768 14.489C140.692 14.2994 140.657 14.0964 140.663 13.8926Z" fill="#3A3A3C"/>
<path d="M144.416 24.3396C144.416 23.9026 144.443 23.3985 144.496 22.8273C144.549 22.2561 144.615 21.6252 144.694 20.9347C144.774 20.2466 144.864 19.63 144.964 19.0852C145.064 18.5404 145.16 18.0707 145.252 17.6762C145.317 17.387 145.464 17.1225 145.675 16.914C145.789 16.8084 145.923 16.7268 146.07 16.6738C146.216 16.6209 146.371 16.5979 146.527 16.606C146.884 16.606 147.132 16.715 147.273 16.9329C147.424 17.1983 147.496 17.5006 147.482 17.8052C147.479 17.9399 147.469 18.0743 147.451 18.2078C147.432 18.3798 147.406 18.5605 147.376 18.7635C147.347 18.9665 147.316 19.173 147.282 19.388C147.247 19.6031 147.218 19.8474 147.188 20.121C147.159 20.3945 147.133 20.601 147.112 20.7352C147.098 20.8258 147.088 20.9171 147.083 21.0087H147.282C147.323 20.9365 147.385 20.8177 147.471 20.6646C147.585 20.4381 147.685 20.2049 147.77 19.9661C147.871 19.688 147.992 19.4177 148.133 19.1575C148.263 18.9281 148.384 18.7033 148.497 18.4831C148.61 18.2697 148.711 18.0788 148.805 17.9136C148.898 17.7484 148.967 17.6263 149.014 17.5471C149.178 17.2364 149.431 16.9809 149.741 16.8125C150.024 16.6779 150.334 16.6102 150.647 16.6146C150.804 16.6117 150.959 16.6485 151.097 16.7216C151.236 16.7948 151.353 16.9018 151.438 17.0327C151.652 17.3775 151.754 17.7793 151.73 18.1837C151.725 18.3068 151.711 18.4292 151.687 18.5502C151.656 18.7222 151.618 18.9269 151.571 19.1644C151.525 19.4018 151.475 19.7098 151.418 20.0865C151.361 20.4633 151.311 20.8005 151.264 21.0982C151.217 21.3958 151.179 21.69 151.148 21.9808C151.117 22.2715 151.103 22.5399 151.103 22.7842C151.093 23.1281 151.145 23.471 151.259 23.7959C151.362 24.0591 151.523 24.1916 151.741 24.1916C151.86 24.1835 151.978 24.1531 152.086 24.1021C152.237 24.0593 152.379 23.9887 152.504 23.894C152.647 23.7712 152.801 23.6617 152.963 23.5671C153.196 23.4523 153.419 23.3194 153.63 23.1696C154.161 22.8347 154.794 22.4218 155.53 21.9309V24.152L155.032 24.5288C154.992 24.5609 154.68 24.733 154.096 25.0449C153.254 25.4934 152.726 25.7641 152.513 25.857C152.199 26.0078 151.876 26.1405 151.547 26.2544C151.212 26.3605 150.863 26.4139 150.511 26.4127C150.146 26.4127 149.839 26.1501 149.591 25.6247C149.342 25.0994 149.217 24.3309 149.217 23.3193C149.219 22.8903 149.246 22.4618 149.297 22.0358C149.35 21.577 149.416 21.0827 149.496 20.5528H149.337L146.729 25.7142C146.635 25.9376 146.48 26.1302 146.282 26.2699C146.106 26.3708 145.906 26.422 145.703 26.4179C145.485 26.4327 145.267 26.3789 145.081 26.2641C144.896 26.1492 144.751 25.9792 144.667 25.7779C144.576 25.5666 144.517 25.3426 144.494 25.1138C144.452 24.8576 144.426 24.599 144.416 24.3396Z" fill="#3A3A3C"/>
<path d="M155.212 35.4982C154.932 35.426 154.665 35.3098 154.421 35.1542C154.173 34.9919 153.97 34.7685 153.834 34.5055C153.678 34.2032 153.585 33.8725 153.561 33.5335C153.508 32.8453 153.7 32.1083 154.138 31.3227C154.39 30.8857 154.564 30.5829 154.656 30.4108C154.747 30.2388 154.908 29.9962 155.124 29.6813C155.326 29.3847 155.548 29.1014 155.787 28.8331C156.248 28.3113 156.63 27.8932 156.936 27.5789C157.241 27.2646 157.6 26.9263 158.015 26.5638L158.215 25.3836C157.472 26.0832 156.748 26.4337 156.044 26.4348C155.531 26.4352 155.03 26.2718 154.616 25.9686C154.195 25.6722 153.857 25.2721 153.637 24.8072C153.239 23.9814 153.228 23.0168 153.606 21.9134C153.885 21.037 154.231 20.1834 154.642 19.3602C154.986 18.6987 155.449 18.1052 156.006 17.6088C156.812 16.8896 157.599 16.5295 158.366 16.5283C158.506 16.5159 158.647 16.5357 158.778 16.5861C158.909 16.6365 159.027 16.7162 159.122 16.8191C159.154 16.8556 159.184 16.8941 159.212 16.9344C159.236 16.9724 159.264 17.0076 159.296 17.0393L159.381 17.1202C159.41 17.1535 159.448 17.179 159.49 17.1941L159.619 17.2406C159.675 17.2604 159.733 17.2737 159.792 17.2802C159.869 17.2875 159.946 17.291 160.023 17.2905L160.46 17.2802C160.761 17.2802 160.965 17.3696 161.079 17.5486C161.127 17.6424 161.171 17.7389 161.208 17.8376C161.288 18.0441 161.297 18.7242 161.238 19.8781C161.201 20.3291 161.115 20.7749 160.984 21.208C160.827 21.7846 160.729 22.3754 160.69 22.9715C160.644 23.6172 160.571 24.4574 160.471 25.492C160.685 25.3663 160.892 25.2278 161.089 25.0773C161.871 24.4901 162.756 23.4005 163.745 21.8084L164.393 24.0107C164.129 24.4791 163.797 24.9063 163.408 25.2786C163.028 25.6664 162.624 26.0312 162.199 26.3711C162.141 26.4107 162.094 26.44 162.061 26.4589C161.423 26.8684 160.963 27.1694 160.68 27.3621C160.476 27.5205 160.343 27.7522 160.31 28.0073C160.245 28.317 160.172 28.9002 160.093 29.7536C160.06 29.9996 160.036 30.1889 160.02 30.3231C159.98 30.6224 159.942 30.9183 159.906 31.2108C159.86 31.5433 159.793 31.8726 159.706 32.1967C159.617 32.5407 159.505 32.8786 159.372 33.2083C159.238 33.5305 159.073 33.8393 158.88 34.1305C158.691 34.4208 158.461 34.6827 158.198 34.9081C157.928 35.13 157.622 35.3045 157.293 35.4243C156.923 35.5595 156.532 35.6266 156.138 35.6221C155.825 35.6207 155.514 35.5791 155.212 35.4982ZM156.659 30.5416C156.221 31.2423 155.86 31.9882 155.583 32.7661C155.364 33.3941 155.478 33.709 155.929 33.709C156.072 33.7109 156.215 33.6906 156.352 33.6487C156.482 33.6052 156.6 33.5322 156.697 33.4354C156.802 33.3353 156.895 33.2239 156.975 33.1033C157.077 32.9401 157.162 32.7672 157.229 32.5872C157.319 32.3578 157.4 32.1376 157.473 31.9265C157.545 31.7155 157.632 31.4288 157.732 31.0663C157.795 30.8603 157.839 30.6489 157.863 30.4349C157.892 30.2061 157.927 29.9188 157.968 29.5867C158.01 29.2547 158.036 29.0362 158.046 28.945C157.569 29.2787 157.107 29.8109 156.659 30.5416ZM156.062 24.1104C156.116 24.2315 156.204 24.3347 156.315 24.4083C156.426 24.482 156.555 24.523 156.689 24.5268C157.139 24.5268 157.514 24.1666 157.813 23.4463C158.041 22.8993 158.172 22.3173 158.201 21.7259L158.948 18.4243C158.177 18.4243 157.5 18.9404 156.917 19.9727C156.286 21.0704 155.94 21.8159 155.88 22.2093C155.756 23.0466 155.816 23.6803 156.062 24.1104Z" fill="#3A3A3C"/>
</g>
<defs>
<linearGradient id="paint0_linear_123_9717" x1="13.8921" y1="11.1246" x2="21.1301" y2="-1.46039" gradientUnits="userSpaceOnUse">
<stop stop-color="#FBB041"/>
<stop offset="0.92" stop-color="#FFDA15"/>
<stop offset="1" stop-color="#FFDE11"/>
</linearGradient>
<linearGradient id="paint1_linear_123_9717" x1="0.948096" y1="8.55244" x2="15.6104" y2="8.55244" gradientUnits="userSpaceOnUse">
<stop stop-color="#D48C3D"/>
<stop offset="0.18" stop-color="#D79737"/>
<stop offset="0.69" stop-color="#DDB02A"/>
<stop offset="1" stop-color="#DFBA25"/>
</linearGradient>
<linearGradient id="paint2_linear_123_9717" x1="0" y1="18.3402" x2="12.431" y2="18.3402" gradientUnits="userSpaceOnUse">
<stop stop-color="#73784B"/>
<stop offset="0.08" stop-color="#777B4A"/>
<stop offset="1" stop-color="#A3993F"/>
</linearGradient>
<linearGradient id="paint3_linear_123_9717" x1="1.18992" y1="28.095" x2="16.1269" y2="28.095" gradientUnits="userSpaceOnUse">
<stop stop-color="#3DB54A"/>
<stop offset="0.04" stop-color="#41B64A"/>
<stop offset="0.46" stop-color="#6BBF45"/>
<stop offset="0.8" stop-color="#84C442"/>
<stop offset="1" stop-color="#8EC641"/>
</linearGradient>
<linearGradient id="paint4_linear_123_9717" x1="20.8659" y1="8.62144" x2="35.5334" y2="8.62144" gradientUnits="userSpaceOnUse">
<stop stop-color="#673090"/>
<stop offset="0.25" stop-color="#8C2B80"/>
<stop offset="0.58" stop-color="#B6246D"/>
<stop offset="0.84" stop-color="#CF2061"/>
<stop offset="1" stop-color="#D91F5D"/>
</linearGradient>
<linearGradient id="paint5_linear_123_9717" x1="24.6807" y1="18.0632" x2="36.5695" y2="18.0632" gradientUnits="userSpaceOnUse">
<stop stop-color="#EC76AE"/>
<stop offset="0.09" stop-color="#EB6CA6"/>
<stop offset="0.49" stop-color="#E64284"/>
<stop offset="0.81" stop-color="#E3296F"/>
<stop offset="1" stop-color="#E21F67"/>
</linearGradient>
<linearGradient id="paint6_linear_123_9717" x1="20.5273" y1="28.0801" x2="35.4677" y2="28.0801" gradientUnits="userSpaceOnUse">
<stop stop-color="#29AAE1"/>
<stop offset="0.33" stop-color="#2973AC"/>
<stop offset="0.63" stop-color="#284883"/>
<stop offset="0.86" stop-color="#282F6A"/>
<stop offset="1" stop-color="#282561"/>
</linearGradient>
<linearGradient id="paint7_linear_123_9717" x1="10.4502" y1="30.3529" x2="26.1678" y2="30.3529" gradientUnits="userSpaceOnUse">
<stop stop-color="#29AAE1"/>
<stop offset="0.23" stop-color="#2AAEC1"/>
<stop offset="0.57" stop-color="#2CB297"/>
<stop offset="0.84" stop-color="#2DB57E"/>
<stop offset="1" stop-color="#2DB674"/>
</linearGradient>
<clipPath id="clip0_123_9717">
<rect width="164.412" height="36.5359" fill="white"/>
</clipPath>
</defs>
</svg>
