<svg xmlns="http://www.w3.org/2000/svg" fill="none" viewBox="0 0 457 135">
  <path fill="#005370" d="M6.54153 134.099c-.28738.298-.76217.307-1.06048.02l-4.860963-4.684c-.298279-.287-.307129-.762-.019745-1.06.287414-.298.762208-.307 1.060488-.02l4.32086 4.163 4.16301-4.321c.2873-.298.7621-.307 1.0604-.019.2983.287.3071.762.0198 1.06l-4.68337 4.861ZM456.619 1.16458c-.193.28128-.386.56146-.58.84054l-1.232-.85649c.192-.276155.384-.553407.574-.831762l1.238.847712Zm-1.753 2.50181c-.394.54936-.791 1.09434-1.19 1.63497l-1.207-.89135c.395-.53486.788-1.07405 1.178-1.61761l1.219.87399Zm-2.397 3.24384c-.405.53195-.813 1.05959-1.223 1.58293l-1.18-.92568c.406-.51767.809-1.03961 1.21-1.56584l1.193.90859Zm-2.463 3.14007c-.422.5226-.847 1.0408-1.274 1.5546l-1.153-.9596c.423-.5082.843-1.02071 1.261-1.53757l1.166.94257Zm-2.584 3.1042c-.439.512-.881 1.0197-1.326 1.5229l-1.124-.9936c.44-.4976.877-.9996 1.312-1.506l1.138.9767Zm-2.669 3.0192c-.45.4944-.904.9844-1.359 1.4701l-1.094-1.0266c.451-.4802.899-.9648 1.344-1.4537l1.109 1.0102Zm-2.735 2.914c-.469.4842-.94.964-1.413 1.4393l-1.063-1.0589c.469-.47.934-.9443 1.397-1.4231l1.079 1.0427Zm-2.852 2.8611c-.482.4694-.967.9344-1.455 1.395l-1.03-1.0906c.482-.4554.962-.9152 1.439-1.3793l1.046 1.0749Zm-2.927 2.7637c-.493.4518-.989.8993-1.487 1.3424l-.997-1.1211c.493-.4381.983-.8806 1.471-1.3273l1.013 1.106Zm-2.991 2.659c-.511.4407-1.024.8769-1.541 1.3088l-.962-1.1506c.51-.427 1.018-.8583 1.524-1.2941l.979 1.1359Zm-3.097 2.5912c-.522.4231-1.046.8419-1.573 1.2563l-.927-1.1788c.521-.4099 1.039-.824 1.555-1.2424l.945 1.1649Zm-3.161 2.4868c-.532.4059-1.067.8075-1.604 1.2049l-.892-1.2058c.531-.393 1.06-.7902 1.586-1.1916l.91 1.1925Zm-3.227 2.3877c-.546.3918-1.095.7793-1.646 1.1625l-.856-1.2314c.545-.3792 1.087-.7624 1.627-1.1499l.875 1.2188Zm-3.307 2.2997c-.556.3749-1.114.7456-1.675 1.1121l-.821-1.2557c.555-.3626 1.108-.7293 1.658-1.1002l.838 1.2438Zm-3.366 2.1993c-.566.3583-1.134.7125-1.705 1.0626l-.784-1.2785c.565-.3465 1.127-.6969 1.687-1.0514l.802 1.2673Zm-3.425 2.1019c-.577.3425-1.155.6809-1.736 1.0153l-.748-1.2999c.574-.331 1.147-.6659 1.717-1.0048l.767 1.2894Zm-3.485 2.0066c-.585.3264-1.173.6489-1.763.9675l-.713-1.3199c.584-.3153 1.166-.6345 1.745-.9577l.731 1.3101Zm-3.54 1.9114c-.593.3105-1.189.6171-1.788.9198l-.677-1.3383c.592-.2998 1.183-.6034 1.77-.9107l.695 1.3292Zm-3.584 1.8142c-.601.2944-1.204.5849-1.809.8718l-.643-1.3555c.6-.2841 1.197-.5719 1.792-.8634l.66 1.3471Zm-3.631 1.721c-.609.2794-1.221.5551-1.834.8271l-.608-1.3713c.608-.2695 1.213-.5426 1.817-.8193l.625 1.3635Zm-3.681 1.6321c-.614.2634-1.23.5232-1.849.7794l-.574-1.3857c.613-.254 1.224-.5114 1.832-.7724l.591 1.3787Zm-3.705 1.5357c-.621.2486-1.243.4937-1.868.7353l-.541-1.3989c.619-.2395 1.236-.4825 1.851-.7289l.558 1.3925Zm-3.747 1.4499c-.628.2347-1.258.4661-1.89.694l-.509-1.411c.626-.226 1.251-.4554 1.874-.6881l.525 1.4051Zm-3.791 1.3674c-.629.2189-1.259.4346-1.892.6471l-.478-1.422c.628-.2107 1.253-.4246 1.877-.6418l.493 1.4167Zm-3.795 1.2747c-.636.206-1.273.4088-1.913.6085l-.447-1.4319c.634-.198 1.267-.3992 1.898-.6036l.462 1.427Zm-3.836 1.1979c-.642.1933-1.287.3835-1.933.5706l-.417-1.4408c.641-.1857 1.28-.3744 1.918-.5662l.432 1.4364Zm-3.866 1.1202c-.642.1789-1.284.3547-1.929.5276l-.388-1.4488c.639-.1716 1.277-.3462 1.914-.5237l.403 1.4449Zm-3.866 1.0374c-.648.167-1.296.3311-1.947.4923l-.361-1.4559c.646-.1601 1.29-.323 1.933-.4889l.375 1.4525Zm-3.902.9673c-.653.1555-1.307.3081-1.963.458l-.334-1.4624c.651-.1488 1.301-.3004 1.95-.4548l.347 1.4592Zm-3.92.8956c-.65.1425-1.301.2822-1.954.4193l-.309-1.468c.649-.1362 1.296-.275 1.942-.4165l.321 1.4652Zm-3.917.8225c-.655.1318-1.312.2609-1.97.3874l-.283-1.473c.654-.1257 1.306-.254 1.958-.385l.295 1.4706Zm-3.948.7592c-.66.1214-1.322.2401-1.984.3564l-.26-1.4775c.659-.1155 1.317-.2336 1.973-.3542l.271 1.4753Zm-3.956.6941c-.657.1098-1.314.2172-1.973.3222l-.236-1.4813c.655-.1044 1.309-.2112 1.962-.3203l.247 1.4794Zm-3.953.6299c-.661.1002-1.323.1981-1.986.2935l-.214-1.4846c.66-.095 1.318-.1923 1.975-.2919l.225 1.483Zm-3.978.573c-.665.0909-1.332.1794-1.999.2657l-.192-1.4877c.664-.0858 1.326-.1738 1.988-.2642l.203 1.4862Zm-3.981.5149c-.661.0808-1.323.1594-1.985.2358l-.172-1.4901c.659-.0761 1.318-.1542 1.975-.2346l.182 1.4889Zm-3.976.4587c-.665.0721-1.33.1422-1.996.2101l-.152-1.4923c.663-.0676 1.325-.1373 1.986-.2091l.162 1.4913Zm-3.998.4077c-.668.0637-1.336.1255-2.006.1851l-.133-1.494c.666-.0594 1.332-.1209 1.997-.1844l.142 1.4933Zm-3.996.3564c-.664.0551-1.328.1082-1.993.1593l-.115-1.4955c.662-.051 1.323-.1039 1.984-.1587l.124 1.4949Zm-3.99.3072c-.667.0473-1.334.0928-2.002.1364l-.098-1.4968c.665-.0434 1.33-.0887 1.993-.1359l.107 1.4963Zm-4.008.2617c-.669.0399-1.339.078-2.01.1143l-.081-1.4978c.668-.0361 1.335-.0741 2.002-.1138l.089 1.4973Zm-4.006.2169c-.665.0324-1.331.0631-1.997.092l-.066-1.4985c.664-.0289 1.327-.0594 1.99-.0917l.073 1.4982Zm-3.998.1738c-.668.0256-1.336.0495-2.004.0718l-.05-1.4992c.666-.0222 1.332-.046 1.996-.0715l.058 1.4989Zm-4.012.1336c-.669.019-1.339.0364-2.01.0521l-.035-1.4995c.668-.0158 1.336-.0331 2.003-.052l.042 1.4994Zm-4.011.0945c-.665.0125-1.332.0235-1.999.033l-.021-1.4999c.665-.0094 1.329-.0204 1.992-.0329l.028 1.4998Zm-4.001.057c-.667.0065-1.335.0115-2.004.0151l-.008-1.5c.666-.0035 1.332-.0086 1.998-.015l.014 1.4999Zm-4.011.0215c-.669.0007-1.339 0-2.009-.0021l.005-1.5c.668.0021 1.336.0028 2.003.0021l.001 1.5Zm-4.012-.0125c-.666-.0048-1.333-.0109-1.999-.0184l.016-1.4999c.665.0074 1.33.0136 1.994.0184l-.011 1.4999Zm-4.001-.0448c-.667-.0101-1.335-.0215-2.003-.0341l.028-1.4998c.666.0127 1.332.024 1.998.0341l-.023 1.4998Zm-4.008-.0758c-.668-.0152-1.337-.0315-2.006-.0491l.039-1.4995c.667.0175 1.334.0339 2.001.049l-.034 1.4996Zm-4.01-.1053c-.666-.0199-1.333-.041-2-.0632l.05-1.4991c.665.0221 1.33.0431 1.995.0629l-.045 1.4994Zm-4-.1331c-.667-.0245-1.334-.05-2.002-.0767l.06-1.4988c.666.0266 1.331.0521 1.997.0765l-.055 1.499Zm-4.004-.1598c-.667-.0288-1.335-.0587-2.002-.0895l.069-1.4984c.666.0308 1.332.0605 1.998.0893l-.065 1.4986Zm-4.005-.1852c-.666-.0329-1.333-.0667-1.999-.1015l.078-1.498c.665.0348 1.33.0685 1.995.1013l-.074 1.4982Zm-3.999-.2089c-.666-.0367-1.333-.0744-1.999-.113l.087-1.4975c.665.0385 1.33.0761 1.995.1128l-.083 1.4977Zm-3.998-.2315c-.667-.0404-1.333-.0817-1.999-.1239l.094-1.497c.665.0421 1.33.0833 1.995.1236l-.09 1.4973Zm-3.998-.2529c-.666-.0439-1.333-.0886-1.999-.1341l.102-1.4966c.665.0455 1.33.0901 1.996.1339l-.099 1.4968Zm-3.997-.2731c-.666-.0472-1.332-.0951-1.998-.1437l.109-1.496c.665.0485 1.33.0964 1.994.1434l-.105 1.4963Zm-3.995-.2919c-.665-.0502-1.33-.101-1.995-.1526l.116-1.4955c.664.0515 1.328.1023 1.992.1523l-.113 1.4958Zm-3.99-.3094c-.666-.053-1.332-.1067-1.997-.1611l.122-1.495c.664.0543 1.329.1079 1.994.1609l-.119 1.4952Zm-3.995-.3263c-.666-.0557-1.331-.1121-1.996-.169l.128-1.4945c.664.0568 1.328.1131 1.993.1687l-.125 1.4948Zm-3.991-.3415c-.664-.0581-1.328-.1167-1.992-.1759l.133-1.4941c.663.0591 1.326.1177 1.99.1757l-.131 1.4943Zm-3.983-.355c-.665-.0605-1.33-.1214-1.994-.1828l.138-1.4936c.664.0613 1.328.1222 1.992.1825l-.136 1.4939Zm-3.992-.369c-.665-.0626-1.33-.1256-1.995-.189l.142-1.4932c.664.0633 1.329.1263 1.994.1888l-.141 1.4934Zm-3.988-.3806c-.664-.0643-1.327-.129-1.99-.1941l.147-1.4928c.662.065 1.324.1296 1.988.1938l-.145 1.4931Zm-3.977-.3904c-.664-.066-1.327-.1323-1.99-.1989l.15-1.4925c.663.0666 1.325.1329 1.988.1988l-.148 1.4926Zm-3.988-.401c-.666-.0677-1.331-.1357-1.995-.204l.153-1.4921c.664.0682 1.328.1361 1.994.2037l-.152 1.4924Zm-3.987-.4095c-.663-.0688-1.326-.1378-1.988-.207l.156-1.4918c.661.0691 1.324.1381 1.986.2068l-.154 1.492Zm-3.972-.4152c-.663-.0698-1.324-.1397-1.985-.2098l.158-1.4916c.661.07 1.322.1399 1.984.2096l-.157 1.4918Zm-3.985-.4226c-.666-.0711-1.331-.1423-1.996-.2136l.16-1.4914c.665.0713 1.33.1424 1.995.2135l-.159 1.4915Zm-3.987-.4277c-.663-.0715-1.325-.143-1.986-.2146l.161-1.4913c.661.0716 1.323.1431 1.986.2145l-.161 1.4914Zm-3.968-.4294c-.661-.0718-1.321-.1435-1.98-.2152l.162-1.4912c.659.0717 1.319.1434 1.98.2152l-.162 1.4912Zm-3.982-.4332c-.667-.0727-1.332-.1452-1.997-.2177l.163-1.4912c.664.0725 1.33.1451 1.996.2177l-.162 1.4912Zm-3.988-.4349c-.662-.0723-1.324-.1445-1.985-.2165l.163-1.4911c.66.072 1.322.1442 1.985.2164l-.163 1.4912Zm-3.964-.4321c-.661-.0719-1.321-.1436-1.98-.2151l.162-1.4913c.659.0716 1.319.1433 1.98.2152l-.162 1.4912Zm-3.984-.4324c-.667-.0722-1.332-.1441-1.997-.2157l.161-1.4914c.665.0717 1.331.1436 1.998.2158l-.162 1.4913Zm-3.988-.4298c-.662-.071-1.323-.1417-1.983-.2121l.159-1.4915c.66.0704 1.322.1411 1.984.2122l-.16 1.4914Zm-3.96-.4221c-.662-.0701-1.323-.1399-1.983-.2092l.156-1.4918c.661.0694 1.322.1391 1.985.2093l-.158 1.4917Zm-3.989-.419c-.667-.0695-1.333-.1385-1.998-.207l.154-1.4921c.665.0686 1.331.1377 1.999.2072l-.155 1.4919Zm-3.988-.4109c-.662-.0674-1.322-.1343-1.982-.2007l.151-1.4924c.659.0664 1.321.1333 1.983.2008l-.152 1.4923Zm-3.955-.3979c-.666-.0662-1.331-.1317-1.994-.1965l.146-1.4929c.664.0649 1.329.1305 1.996.1967l-.148 1.4927Zm-4.001-.3911c-.668-.0641-1.333-.1275-1.998-.1902l.141-1.4934c.665.0628 1.332.1263 2 .1905l-.143 1.4931Zm-3.985-.3759c-.661-.0611-1.32-.1214-1.978-.1809l.135-1.4939c.659.0596 1.319.12 1.981.1812l-.138 1.4936Zm-3.946-.3568c-.674-.0595-1.347-.1181-2.017-.1758l.128-1.4945c.672.0578 1.345.1165 2.021.1761l-.132 1.4942Zm-4.023-.3457c-.666-.0557-1.331-.1103-1.994-.1639l.121-1.4951c.664.0537 1.33.1084 1.998.1642l-.125 1.4948Zm-3.977-.3215c-.659-.0515-1.316-.1018-1.971-.151l.112-1.4958c.657.0493 1.315.0998 1.976.1513l-.117 1.4955Zm-3.971-.2982c-.673-.0485-1.344-.0957-2.014-.1416l.103-1.4965c.671.046 1.344.0934 2.019.142l-.108 1.4961Zm-4.014-.2754c-.665-.0433-1.328-.0852-1.988-.1258l.092-1.4971c.662.0406 1.327.0826 1.993.126l-.097 1.4969Zm-3.961-.2431c-.665-.0382-1.328-.0749-1.988-.1101l.08-1.4979c.662.0353 1.327.0722 1.994.1105l-.086 1.4975Zm-4.009-.2135c-.671-.0328-1.34-.0639-2.006-.0933l.067-1.4986c.668.0296 1.339.0608 2.012.0937l-.073 1.4982Zm-3.995-.1764c-.661-.026-1.319-.0502-1.974-.0726l.051-1.4991c.658.0225 1.318.0468 1.982.0728l-.059 1.4989Zm-3.959-.135c-.678-.0195-1.353-.0369-2.025-.0523l.034-1.4996c.675.0154 1.353.0329 2.034.0525l-.043 1.4994Zm-4.032-.092c-.666-.0111-1.328-.02-1.988-.0268l.016-1.4999c.662.0068 1.328.0158 1.997.0269l-.025 1.4998Zm-3.957-.0404c-.326-.0011-.652-.0017-.977-.0017v-1.5c.327 0 .654.0006.982.0018l-.005 1.4999Zm-.977-.0017c-.341 0-.68.001-1.018.0028l-.009-1.5c.341-.0018.684-.0028 1.027-.0028v1.5Zm-3.034.0249c-.667.011-1.329.0256-1.987.0438l-.041-1.4995c.663-.0183 1.331-.0331 2.004-.0441l.024 1.4998Zm-3.9462.109c-.6485.0253-1.2923.0542-1.9316.0865l-.0757-1.4981c.6451-.0326 1.2946-.0617 1.9488-.0872l.0585 1.4988Zm-3.946.2006c-.6703.0422-1.3355.0882-1.9955.138l-.113-1.4957c.6664-.0503 1.3378-.0968 2.0144-.1393l.0941 1.497Zm-3.9604.299c-.6498.0574-1.2946.1185-1.9343.1834l-.1513-1.4924c.6462-.0655 1.2974-.1272 1.9536-.1852l.132 1.4942Zm-3.9084.397c-.6694.0771-1.3331.1582-1.9911.2434l-.1926-1.4876c.6651-.0861 1.3358-.1681 2.0121-.2459l.1716 1.4901Zm-3.9485.511c-.6469.0931-1.2882.1903-1.9241.2913l-.2353-1.4815c.643-.1021 1.2915-.2003 1.9456-.2945l.2138 1.4847Zm-3.8757.6164c-.6632.1157-1.3203.2357-1.9712.3599l-.2811-1.4735c.6587-.1256 1.3235-.247 1.9945-.3641l.2578 1.4777Zm-3.9058.7449c-.6388.1325-1.2715.2691-1.8982.4098l-.3285-1.4637c.6347-.1424 1.2754-.2807 1.9221-.4148l.3046 1.4687Zm-3.838.8624c-.6511.1578-1.2956.3201-1.9335.4867l-.379-1.4514c.6464-.1688 1.2995-.3332 1.9592-.4931l.3533 1.4578Zm-3.8276.9992c-.6281.1761-1.2497.3563-1.8647.5408l-.4308-1.4368c.6237-.1871 1.2539-.3699 1.8908-.5483l.4047 1.4443Zm-3.784 1.1364c-.6326.203-1.258.4105-1.8764.6224l-.4861-1.4191c.6276-.215 1.2623-.4255 1.9041-.6315l.4584 1.4282Zm-3.7105 1.2708c-.6269.2286-1.2463.4617-1.8584.6993l-.5427-1.3984c.6217-.2413 1.2507-.478 1.8872-.7102l.5139 1.4093Zm-3.7023 1.4373c-.607.2504-1.2065.5053-1.7985.7644l-.6014-1.3742c.6018-.2634 1.211-.5224 1.8278-.7768l.5721 1.3866Zm-3.5923 1.5728c-.6065.2815-1.205.5675-1.7954.8578l-.6619-1.346c.6006-.2954 1.2092-.5862 1.826-.8724l.6313 1.3606Zm-3.5426 1.7418c-.5848.3043-1.1614.613-1.7299.9258l-.7232-1.3141c.5788-.3185 1.1656-.6326 1.7607-.9423l.6924 1.3306Zm-3.4604 1.9053c-.5684.3308-1.1283.6659-1.6799 1.005l-.7855-1.2779c.5618-.3454 1.1321-.6866 1.7108-1.0235l.7546 1.2964Zm-3.3417 2.0548c-.5588.3627-1.1087.7297-1.6498 1.1006l-.8481-1.2372c.5514-.378 1.1118-.752 1.6812-1.1216l.8167 1.2582Zm-3.2468 2.2251c-.5376.3887-1.066.7814-1.5855 1.1779l-.91-1.1925c.5297-.4042 1.0685-.8046 1.6165-1.2009l.879 1.2155ZM35.43 74.3256c-.509.4098-1.0089.8231-1.4999 1.2399l-.9707-1.1437c.5009-.4251 1.0108-.8467 1.5299-1.2646l.9407 1.1684Zm-2.9987 2.5465c-.4913.44-.9731.8833-1.4458 1.3296l-1.0299-1.0905c.4822-.4554.9738-.9077 1.475-1.3565l1.0007 1.1174Zm-2.8535 2.695c-.4709.4689-.932.9409-1.3836 1.4155l-1.0867-1.034c.4608-.4843.9313-.9658 1.4117-1.4443l1.0586 1.0628Zm-2.7102 2.8472c-.4456.494-.8814.9905-1.3076 1.4892l-1.1403-.9745c.4348-.5088.8795-1.0155 1.3342-1.5195l1.1137 1.0048Zm-2.5637 2.9994c-.4151.5129-.8205 1.0277-1.2163 1.5441l-1.1905-.9125c.4038-.5268.8173-1.052 1.2409-1.5753l1.1659.9437Zm-2.3968 3.1276c-.385.5309-.7602 1.0631-1.1259 1.5962l-1.2369-.8486c.373-.5437.7557-1.0866 1.1484-1.6282l1.2144.8806Zm-2.227 3.2473c-.357.551-.7043 1.1026-1.0419 1.6542l-1.2794-.783c.3443-.5625.6984-1.125 1.0625-1.6869l1.2588.8157Zm-2.0547 3.3579c-.3294.5709-.649 1.1414-.9588 1.711l-1.3177-.7167c.3158-.5806.6415-1.1621.9774-1.7441l1.2991.7498Zm-1.881 3.4587c-.3012.5886-.5923 1.1759-.8738 1.7608l-1.3518-.6496c.2867-.5963.5833-1.1946.8903-1.7945l1.3353.6833Zm-1.7067 3.5498c-.2724.604-.5347 1.206-.7873 1.804l-1.3819-.583c.2571-.609.5243-1.222.8018-1.838l1.3674.617Zm-1.5325 3.631c-.2432.617-.4763 1.231-.6995 1.839l-1.4082-.517c.2272-.619.4645-1.243.7122-1.872l1.3955.55Zm-1.3584 3.702c-.2137.628-.417 1.25-.6105 1.864l-1.43077-.45c.19687-.626.40378-1.258.62125-1.897l1.42002.483Zm-1.18458 3.764c-.18363.635-.35678 1.26-.52008 1.876l-1.44992-.384c.16614-.627.34231-1.263.52914-1.909l1.44086.417Zm-1.00934 3.812c-.15695.653-.30273 1.292-.43817 1.918l-1.46606-.317c.13781-.637.28613-1.288.44583-1.952l1.4584.351Zm-.8305 3.836c-.12986.674-.24747 1.328-.35398 1.96l-1.47918-.249c.10842-.644.22811-1.309.36026-1.995l1.4729.284Zm-.6586 3.91c-.09812.682-.1828 1.331-.25589 1.946l-1.48954-.177c.07453-.627.16083-1.288.26075-1.982l1.48468.213Zm-.46265 3.9c-.06772.734-.11734 1.395-.15363 1.976l-1.49707-.093c.03717-.596.08792-1.272.15705-2.02l1.49365.137Zm-.24042 3.909c-.00778.313-.0101.552-.01047.711-.00021.08.0001.14.00043.179.00015.02.00034.034.00046.044.00006.004.00009.008.00012.01.00003.001.00003.001.00003.002h.00003l-.74988.014-.74987.014v-.001c-.00003 0-.00003-.001-.00003-.001-.00003-.001-.00003-.003-.00007-.004l-.00021-.014c-.00015-.012-.00036-.029-.00055-.051-.00036-.045-.00067-.11-.00046-.195.0004-.171.00287-.421.01096-.746l1.49951.038Z"/>
</svg>
