<svg xmlns="http://www.w3.org/2000/svg" fill="none" viewBox="0 0 457 135">
  <path fill="#005370" d="M450.459 134.111c.287.298.762.307 1.06.02l4.861-4.684c.299-.287.307-.762.02-1.06-.287-.299-.762-.307-1.06-.02l-4.321 4.163-4.163-4.321c-.288-.298-.762-.307-1.061-.02-.298.288-.307.763-.019 1.061l4.683 4.861ZM.381437 1.1763c.192687.28128.386086.56146.580193.84054l1.23143-.85649a142.3103646 142.3103646 0 0 1-.57413-.831763L.381437 1.1763ZM2.13473 3.6781c.39385.54937.79051 1.09435 1.18994 1.63498l1.20644-.89135c-.39517-.53486-.78761-1.07405-1.1773-1.61761l-1.21908.87398Zm2.39655 3.24384c.40496.53196.81268 1.0596 1.22312 1.58294l1.1803-.92568c-.40599-.51767-.8093-1.03961-1.20991-1.56584l-1.19351.90858Zm2.4626 3.14016c.42215.5225.84709 1.0407 1.27478 1.5545l1.15287-.9596c-.423-.5082-.84328-1.02069-1.26082-1.53755l-1.16683.94265Zm2.58427 3.1041c.43935.5121.88145 1.0197 1.32635 1.5229l1.1237-.9936c-.4399-.4976-.8771-.9996-1.3116-1.506l-1.13845.9767Zm2.66925 3.0193c.4504.4943.9036.9844 1.3595 1.47l1.0936-1.0266c-.4508-.4802-.8988-.9648-1.3442-1.4536l-1.1089 1.0102Zm2.7352 2.914c.4683.4842.9393.9639 1.4131 1.4393l1.0624-1.059c-.4685-.47-.9342-.9443-1.3972-1.4231l-1.0783 1.0428Zm2.8518 2.861c.4823.4694.9674.9344 1.4551 1.395l1.0299-1.0906c-.4823-.4554-.9619-.9152-1.4388-1.3793l-1.0462 1.0749Zm2.9266 2.7637c.4932.4518.989.8993 1.4875 1.3424l.9966-1.1211c-.4929-.4381-.9832-.8806-1.4708-1.3273l-1.0133 1.106Zm2.9912 2.6591c.5109.4406 1.0245.8768 1.5408 1.3087l.9624-1.1506c-.5105-.427-1.0184-.8583-1.5235-1.294l-.9797 1.1359Zm3.0975 2.5911c.5216.4231 1.0458.8419 1.5726 1.2564l.9275-1.1789c-.5209-.4099-1.0393-.824-1.5551-1.2424l-.945 1.1649Zm3.1608 2.4869c.5319.4058 1.0665.8074 1.6035 1.2048l.8922-1.2058c-.5312-.393-1.0598-.7902-1.5859-1.1916l-.9098 1.1926Zm3.227 2.3876c.5461.3918 1.0947.7793 1.6458 1.1626l.8564-1.2315c-.5451-.3791-1.0877-.7624-1.6278-1.1499l-.8744 1.2188Zm3.3067 2.2997c.5561.3749 1.1146.7456 1.6756 1.1121l.8205-1.2557c-.555-.3626-1.1076-.7293-1.6577-1.1001l-.8384 1.2437Zm3.3659 2.1993c.5659.3583 1.1342.7125 1.7048 1.0626l.7844-1.2785c-.5646-.3465-1.1269-.6969-1.6867-1.0514l-.8025 1.2673Zm3.4257 2.1019c.5761.3425 1.1546.6809 1.7354 1.0153l.7485-1.2999c-.5748-.331-1.1473-.6659-1.7174-1.0048l-.7665 1.2894Zm3.4847 2.0066c.5854.3265 1.173.6489 1.7629.9675l.7128-1.3198c-.584-.3154-1.1657-.6346-1.7451-.9578l-.7306 1.3101Zm3.5394 1.9115c.5938.3104 1.1898.617 1.7881.9197l.6773-1.3383c-.5924-.2998-1.1825-.6034-1.7704-.9107l-.695 1.3293Zm3.5844 1.8142c.601.2943 1.204.5849 1.8092.8717l.6424-1.3555c-.5994-.2841-1.1966-.5718-1.7918-.8633l-.6598 1.3471Zm3.631 1.7209c.6093.2794 1.2207.5551 1.8342.8271l.608-1.3713c-.6078-.2695-1.2135-.5425-1.8171-.8193l-.6251 1.3635Zm3.6806 1.6321c.6144.2634 1.2308.5232 1.8491.7794l.5743-1.3857c-.6128-.2539-1.2236-.5114-1.8324-.7723l-.591 1.3786Zm3.7055 1.5357c.6208.2486 1.2434.4937 1.8679.7353l.5413-1.3989c-.6191-.2395-1.2363-.4825-1.8515-.7289l-.5577 1.3925Zm3.7471 1.4499c.6282.2348 1.2583.4661 1.8902.694l.509-1.411c-.6266-.226-1.2513-.4554-1.8742-.6881l-.525 1.4051Zm3.7904 1.3674c.6291.2189 1.2599.4346 1.8925.6471l.4775-1.422c-.6274-.2107-1.253-.4246-1.8769-.6418l-.4931 1.4167Zm3.7953 1.2748c.636.206 1.2737.4088 1.913.6084l.4471-1.4318c-.6343-.1981-1.267-.3993-1.8979-.6036l-.4622 1.427Zm3.8359 1.1978c.6427.1933 1.2869.3835 1.9328.5706l.4174-1.4408c-.641-.1856-1.2804-.3744-1.918-.5662l-.4322 1.4364Zm3.8665 1.1203c.6414.1788 1.2842.3546 1.9285.5275l.3888-1.4488c-.6397-.1716-1.2778-.3461-1.9144-.5236l-.4029 1.4449Zm3.8661 1.0373c.6473.167 1.2961.3311 1.9464.4923l.3609-1.4559c-.6457-.1601-1.2899-.323-1.9326-.4888l-.3747 1.4524Zm3.9015.9673c.6531.1555 1.3076.3082 1.9635.458l.3341-1.4623c-.6515-.1489-1.3016-.3005-1.9503-.4549l-.3473 1.4592Zm3.9198.8957c.6503.1424 1.3019.2821 1.9547.4192l.3082-1.468c-.6486-.1362-1.2959-.275-1.9419-.4165l-.321 1.4653Zm3.9172.8224c.6558.1318 1.3118.2609 1.9698.3874l.284-1.473c-.654-.1257-1.307-.254-1.9581-.3849l-.2957 1.4705Zm3.9478.7592c.66.1214 1.322.2401 1.985.3564l.259-1.4775c-.659-.1155-1.317-.2336-1.973-.3542l-.271 1.4753Zm3.956.6941c.657.1098 1.315.2172 1.973.3222l.236-1.4813c-.655-.1044-1.308-.2111-1.961-.3203l-.248 1.4794Zm3.953.63c.661.1002 1.323.198 1.986.2935l.214-1.4847c-.659-.095-1.318-.1923-1.975-.2919l-.225 1.4831Zm3.979.5729c.665.0909 1.331.1794 1.998.2657l.193-1.4876c-.664-.0858-1.327-.1739-1.988-.2643l-.203 1.4862Zm3.98.5149c.661.0808 1.323.1594 1.986.2358l.172-1.4901c-.66-.076-1.318-.1542-1.976-.2346l-.182 1.4889Zm3.976.4587c.665.0721 1.33.1422 1.997.2101l.152-1.4923c-.663-.0676-1.325-.1372-1.987-.209l-.162 1.4912Zm3.998.4077c.668.0638 1.337.1255 2.006.1852l.134-1.4941c-.667-.0594-1.333-.1209-1.997-.1843l-.143 1.4932Zm3.997.3564c.663.0551 1.327.1082 1.992.1594l.116-1.4956c-.663-.051-1.324-.1038-1.984-.1587l-.124 1.4949Zm3.99.3072c.666.0474 1.334.0928 2.002.1364l.097-1.4968c-.665-.0434-1.329-.0887-1.993-.1358l-.106 1.4962Zm4.007.2617c.67.0399 1.34.078 2.011.1143l.081-1.4978c-.668-.0361-1.336-.0741-2.002-.1138l-.09 1.4973Zm4.007.2169c.665.0324 1.33.0631 1.997.0921l.065-1.4986c-.664-.0289-1.327-.0594-1.989-.0917l-.073 1.4982Zm3.997.1739c.668.0255 1.336.0494 2.005.0717l.049-1.4992c-.666-.0221-1.331-.046-1.996-.0714l-.058 1.4989Zm4.012.1335c.67.019 1.34.0364 2.01.0522l.036-1.4996c-.669-.0158-1.336-.033-2.004-.052l-.042 1.4994Zm4.011.0945c.666.0125 1.332.0235 1.999.033l.021-1.4998c-.664-.0095-1.328-.0205-1.992-.0329l-.028 1.4997Zm4.001.057c.668.0065 1.336.0115 2.004.0151l.008-1.5c-.666-.0035-1.332-.0085-1.997-.015l-.015 1.4999Zm4.011.0216c.669.0007 1.339 0 2.009-.0022l-.005-1.4999c-.668.0021-1.335.0028-2.002.0021l-.002 1.5Zm4.012-.0126c.666-.0048 1.333-.0109 2-.0184l-.017-1.4999c-.665.0074-1.33.0136-1.994.0184l.011 1.4999Zm4.001-.0448c.668-.0101 1.336-.0215 2.004-.0341l-.029-1.4997c-.666.0126-1.332.0239-1.997.034l.022 1.4998Zm4.008-.0758c.669-.0151 1.338-.0315 2.007-.0491l-.04-1.4995c-.667.0176-1.334.0339-2.001.049l.034 1.4996Zm4.01-.1053c.667-.0199 1.333-.041 2-.0631l-.05-1.4992c-.665.0221-1.33.0431-1.994.0629l.044 1.4994Zm4.001-.1331c.667-.0244 1.334-.05 2.001-.0767l-.06-1.4988c-.665.0266-1.331.0521-1.996.0765l.055 1.499Zm4.003-.1598c.668-.0288 1.335-.0586 2.003-.0895l-.069-1.4984c-.667.0308-1.333.0606-1.998.0893l.064 1.4986Zm4.005-.1852c.667-.0328 1.333-.0667 1.999-.1015l-.078-1.498c-.665.0348-1.33.0686-1.995.1013l.074 1.4982Zm3.999-.2088c.666-.0368 1.333-.0745 1.999-.1131l-.086-1.4975c-.665.0386-1.331.0762-1.996.1128l.083 1.4978Zm3.999-.2316c.666-.0404 1.332-.0817 1.999-.1239l-.095-1.497c-.665.0421-1.33.0833-1.995.1237l.091 1.4972Zm3.997-.2529c.667-.0439 1.333-.0886 1.999-.1341l-.102-1.4965c-.665.0454-1.33.09-1.995.1338l.098 1.4968Zm3.998-.2731c.666-.0471 1.332-.095 1.997-.1437l-.109-1.496c-.664.0486-1.329.0964-1.994.1434l.106 1.4963Zm3.994-.2919c.666-.0501 1.331-.101 1.996-.1526l-.116-1.4955c-.664.0515-1.328.1023-1.993.1523l.113 1.4958Zm3.99-.3093c.666-.0531 1.332-.1068 1.998-.1612l-.123-1.495c-.664.0543-1.329.1079-1.994.1609l.119 1.4953Zm3.995-.3264c.666-.0557 1.332-.112 1.997-.169l-.128-1.4945c-.664.0568-1.329.1131-1.994.1687l.125 1.4948Zm3.991-.3415c.665-.0581 1.329-.1167 1.993-.1759l-.134-1.4941c-.663.0591-1.326.1177-1.989.1757l.13 1.4943Zm3.983-.355c.665-.0604 1.33-.1214 1.994-.1828l-.138-1.4936c-.663.0613-1.327.1222-1.991.1825l.135 1.4939Zm3.992-.369c.666-.0626 1.331-.1256 1.996-.189l-.143-1.4932c-.664.0634-1.328.1263-1.993.1888l.14 1.4934Zm3.988-.3806c.664-.0643 1.327-.129 1.99-.1941l-.146-1.4928c-.662.065-1.325.1296-1.988.1939l.144 1.493Zm3.978-.3904c.663-.0659 1.326-.1323 1.989-.1989l-.15-1.4925c-.662.0666-1.325.1329-1.988.1988l.149 1.4926Zm3.988-.401c.665-.0677 1.33-.1357 1.995-.2039l-.153-1.4922c-.664.0682-1.329.1361-1.994.2038l.152 1.4923Zm3.987-.4095c.663-.0687 1.326-.1377 1.988-.207l-.156-1.4918c-.662.0691-1.324.1381-1.987.2068l.155 1.492Zm3.972-.4152c.662-.0698 1.324-.1397 1.984-.2098l-.158-1.4916c-.66.07-1.322.1399-1.983.2097l.157 1.4917Zm3.984-.4226c.666-.0711 1.331-.1423 1.996-.2136l-.16-1.4914c-.664.0713-1.329.1424-1.995.2135l.159 1.4915Zm3.987-.4277c.663-.0715 1.325-.143 1.987-.2146l-.162-1.4913c-.661.0716-1.323.1431-1.986.2145l.161 1.4914Zm3.968-.4294c.661-.0717 1.322-.1435 1.981-.2152l-.162-1.4912c-.66.0717-1.32.1434-1.981.2152l.162 1.4912Zm3.983-.4332c.666-.0727 1.332-.1452 1.996-.2177l-.162-1.4912c-.665.0725-1.33.1451-1.997.2177l.163 1.4912Zm3.987-.4349c.663-.0723 1.325-.1444 1.985-.2165l-.162-1.4911c-.661.072-1.323.1442-1.986.2165l.163 1.4911Zm3.965-.432c.66-.072 1.32-.1437 1.979-.2152l-.162-1.4912c-.659.0715-1.319.1432-1.98.2152l.163 1.4912Zm3.983-.4325c.667-.0721 1.333-.1441 1.997-.2157l-.16-1.4914c-.665.0717-1.331.1437-1.998.2158l.161 1.4913Zm3.988-.4297c.662-.0711 1.324-.1418 1.984-.2122l-.159-1.4915c-.661.0704-1.322.1412-1.985.2122l.16 1.4915Zm3.961-.4222c.662-.0701 1.323-.1399 1.983-.2092l-.157-1.4918c-.66.0694-1.322.1392-1.984.2093l.158 1.4917Zm3.988-.419c.668-.0694 1.334-.1384 1.998-.2069l-.153-1.4921c-.666.0685-1.332.1376-2 .2071l.155 1.4919Zm3.988-.4109c.662-.0674 1.323-.1343 1.982-.2007l-.15-1.4924c-.66.0664-1.321.1333-1.984.2009l.152 1.4922Zm3.955-.3979c.666-.0661 1.331-.1317 1.995-.1965l-.146-1.4929c-.664.0649-1.33.1305-1.997.1967l.148 1.4927Zm4.002-.391c.667-.0642 1.333-.1276 1.997-.1903l-.141-1.4933c-.665.0627-1.332.1262-2 .1904l.144 1.4932Zm3.985-.376c.66-.0611 1.32-.1214 1.977-.1809l-.135-1.4939c-.658.0596-1.319.12-1.981.1812l.139 1.4936Zm3.946-.3568c.674-.0595 1.346-.1181 2.016-.1758l-.128-1.4944c-.672.0577-1.345.1164-2.02.176l.132 1.4942Zm4.022-.3457c.667-.0557 1.332-.1103 1.994-.1639l-.12-1.4951c-.665.0537-1.331.1084-1.999.1642l.125 1.4948Zm3.977-.3215c.659-.0514 1.316-.1018 1.972-.151l-.113-1.4958c-.656.0493-1.315.0998-1.975.1514l.116 1.4954Zm3.971-.2982c.674-.0484 1.345-.0957 2.014-.1416l-.103-1.4965c-.671.0461-1.344.0934-2.019.142l.108 1.4961Zm4.015-.2754c.664-.0433 1.327-.0852 1.987-.1257l-.092-1.4972c-.662.0406-1.326.0827-1.993.126l.098 1.4969Zm3.961-.2431c.665-.0382 1.327-.0749 1.987-.1101l-.08-1.4979c-.662.0353-1.326.0722-1.993.1105l.086 1.4975Zm4.008-.2134c.671-.0328 1.34-.064 2.006-.0934l-.066-1.4985c-.669.0295-1.34.0607-2.013.0936l.073 1.4983Zm3.996-.1765c.66-.026 1.318-.0502 1.973-.0726l-.051-1.4991c-.658.0225-1.318.0468-1.981.0728l.059 1.4989Zm3.959-.135c.678-.0195 1.353-.0369 2.025-.0522l-.035-1.4997c-.675.0155-1.353.033-2.033.0525l.043 1.4994Zm4.031-.092c.666-.0111 1.329-.02 1.988-.0268l-.015-1.4999c-.663.0068-1.329.0158-1.998.027l.025 1.4997Zm3.957-.0403c.327-.0012.653-.0017.977-.0017v-1.5c-.326 0-.654.0005-.982.0017l.005 1.5Zm.977-.0017c.341 0 .68.0009 1.019.0027l.008-1.5c-.341-.0018-.683-.0027-1.027-.0027v1.5Zm3.034.0248c.667.011 1.33.0256 1.987.0438l.042-1.4994c-.664-.0184-1.332-.0331-2.004-.0442l-.025 1.4998Zm3.947.1091c.648.0253 1.292.0541 1.931.0864l.076-1.4981c-.645-.0326-1.295-.0617-1.949-.0872l-.058 1.4989Zm3.946.2005c.67.0422 1.335.0882 1.995.1381l.113-1.4958c-.666-.0503-1.338-.0968-2.014-.1393l-.094 1.497Zm3.96.299c.65.0574 1.295.1186 1.934.1834l.152-1.4923c-.647-.0656-1.298-.1273-1.954-.1853l-.132 1.4942Zm3.908.397c.67.0771 1.333.1582 1.991.2434l.193-1.4876c-.665-.0861-1.336-.1681-2.012-.2459l-.172 1.4901Zm3.949.511c.647.0932 1.288.1903 1.924.2913l.235-1.4814c-.643-.1022-1.291-.2004-1.945-.2946l-.214 1.4847Zm3.876.6164c.663.1157 1.32.2357 1.971.3599l.281-1.4734c-.659-.1257-1.324-.2471-1.995-.3642l-.257 1.4777Zm3.905.7449c.639.1325 1.272.2691 1.899.4098l.328-1.4636c-.635-.1424-1.275-.2808-1.922-.4149l-.305 1.4687Zm3.838.8624c.651.1578 1.296.3201 1.934.4867l.379-1.4514c-.647-.1688-1.3-.3332-1.959-.4931l-.354 1.4578Zm3.828.9992c.628.1761 1.25.3564 1.865.5408l.43-1.4368c-.623-.1871-1.253-.3699-1.89-.5483l-.405 1.4443Zm3.784 1.1364c.633.203 1.258.4106 1.876.6224l.486-1.4191c-.627-.215-1.262-.4255-1.904-.6315l-.458 1.4282Zm3.71 1.2708c.627.2286 1.247.4617 1.859.6993l.543-1.3984c-.622-.2413-1.251-.478-1.888-.7101l-.514 1.4092Zm3.703 1.4373c.607.2504 1.206.5053 1.798.7644l.602-1.3742c-.602-.2633-1.211-.5223-1.828-.7768l-.572 1.3866Zm3.592 1.5729c.607.2814 1.205.5674 1.795.8577l.662-1.346c-.6-.2953-1.209-.5862-1.826-.8724l-.631 1.3607Zm3.543 1.7417c.584.3043 1.161.613 1.73.9259l.723-1.3142c-.579-.3185-1.166-.6326-1.761-.9423l-.692 1.3306Zm3.46 1.9054c.568.3308 1.128.6658 1.68 1.0049l.785-1.2779c-.561-.3454-1.132-.6866-1.71-1.0234l-.755 1.2964Zm3.342 2.0547c.559.3627 1.108.7297 1.65 1.1006l.848-1.2372c-.552-.378-1.112-.752-1.682-1.1216l-.816 1.2582Zm3.247 2.2251c.537.3888 1.066.7814 1.585 1.1779l.91-1.1925c-.53-.4042-1.068-.8046-1.616-1.2009l-.879 1.2155Zm3.139 2.3962c.509.4098 1.009.8231 1.5 1.2399l.971-1.1437c-.501-.4251-1.011-.8467-1.53-1.2646l-.941 1.1684Zm2.999 2.5465c.491.44.973.8833 1.446 1.3297l1.03-1.0906c-.482-.4554-.974-.9077-1.475-1.3565l-1.001 1.1174Zm2.854 2.695c.47.469.932.9409 1.383 1.4155l1.087-1.0339c-.461-.4843-.931-.9659-1.412-1.4444l-1.058 1.0628Zm2.71 2.8472c.445.494.881.9905 1.307 1.4892l1.141-.9745c-.435-.5088-.88-1.0154-1.335-1.5195l-1.113 1.0048Zm2.563 2.9995c.416.5128.821 1.0276 1.217 1.544l1.19-.9125c-.404-.5268-.817-1.052-1.241-1.5753l-1.166.9438Zm2.397 3.1275c.385.5309.76 1.0631 1.126 1.5962l1.237-.8486c-.373-.5437-.756-1.0866-1.148-1.6282l-1.215.8806Zm2.227 3.2473c.357.5511.705 1.1026 1.042 1.6543l1.28-.7831c-.345-.5625-.699-1.1249-1.063-1.6869l-1.259.8157Zm2.055 3.3579c.329.5709.649 1.1414.959 1.711l1.317-.7167c-.315-.5806-.641-1.1621-.977-1.7441l-1.299.7498Zm1.881 3.4587c.301.5887.592 1.1759.874 1.7611l1.352-.6499c-.287-.5963-.584-1.1946-.891-1.7945l-1.335.6833Zm1.707 3.5501c.272.604.534 1.205.787 1.804l1.382-.583c-.257-.61-.524-1.222-.802-1.838l-1.367.617Zm1.532 3.631c.243.617.476 1.23.7 1.839l1.408-.517c-.227-.619-.465-1.244-.712-1.872l-1.396.55Zm1.359 3.702c.213.628.417 1.249.61 1.864l1.431-.451c-.197-.625-.404-1.257-.621-1.896l-1.42.483Zm1.184 3.764c.184.634.357 1.26.52 1.876l1.45-.384c-.166-.627-.342-1.264-.529-1.909l-1.441.417Zm1.009 3.812c.157.652.303 1.292.439 1.918l1.466-.318c-.138-.636-.286-1.287-.446-1.951l-1.459.351Zm.831 3.835c.13.674.247 1.328.354 1.961l1.479-.249c-.108-.644-.228-1.31-.36-1.995l-1.473.283Zm.659 3.911c.098.682.182 1.331.255 1.946l1.49-.177c-.075-.627-.161-1.289-.261-1.983l-1.484.214Zm.462 3.9c.068.734.118 1.395.154 1.976l1.497-.094c-.037-.595-.088-1.271-.157-2.02l-1.494.138Zm.241 3.908c.007.313.01.552.01.712v.179c0 .02-.001.034-.001.043v.013c0-.001 0-.001.75.013l.75.014v-.019c0-.012 0-.029.001-.052v-.195c0-.17-.003-.42-.011-.745l-1.499.037Z"/>
</svg>
