<svg xmlns="http://www.w3.org/2000/svg" fill="#E69649" viewBox="0 0 486 63">
  <path fill-rule="evenodd" d="M474.805 52.7447c.672-1.0255 1.602-.8204 2.604-.293-.51 1.8166-1.564 1.0255-2.604.293Zm1.62-6.5925c-.905 2.051-2.55.5565-4.008-.0295 1.083-1.2013 2.64-.1463 4.008.0295Zm-5.576-12.306c.387-1.8752 1.682.5858 2.207-.6155.879 1.7873-1.385 1.6996-2.207.6155Zm-.054 18.8691c-.401.6739-.513-.1465-1.002 0-.402.1172-2.743.7913-2.801-.6444-.539.0586-.879 1.1134-1.607.293.134-1.5529.777-.4397 1.206-.6155.256-.1172.558-.879.803-.9376.196-.0586.627.7326.801.6154.095-.0586.733-.9376.806-.9376.23.0293.978 2.8128 1.798.6446.272.1758.203 1.2305-.004 1.5821Zm-7.956-20.5101c.883-.5567 1.896-.4979 3.009.0295-.366 3.2523-2.593 1.7578-3.009-.0295Zm.142 19.807c-.743.2051-1.52.5861-2.205.6447-1.297-.3809-.749-1.7289-1.798-2.227 1.768-.586 3.715-.3223 5.812.6739-.185 2.1389-1.251.7912-1.809.9084Zm4.879-22.9126c.799.6446 1.6 1.2599 2.399 1.9045-.59 1.2013-1.629-.1757-2.406-.3222-.806-.1758-1.732.8203-1.801-.6447.328-1.6408 1.71 1.7873 1.808-.9376Zm-12.834 4.0141c-.289-.3809-.201-.967-.599-1.2893.136-.4102.267-.8205.405-1.2307.945.3809.471 1.4945.194 2.52Zm-3.041 10.9875c-.095-.2637-.765-.3809-.799-.6446.008.0586.831-.9377.803-.9377.043.0293.321 2.0511.398 1.8753-.409.879-.363-.2051-.402-.293Zm-2.421 5.9479c-.267-.2051-.532-.4396-.799-.6447.136-.4102.271-.8203.405-1.2598.267.2051.532.4395.799.6446-.134.4102-.271.8497-.405 1.2599Zm-3.202-.9669c.452-1.0255 1.149-.879 2.002 0-.204 2.2268-1.247.4102-2.002 0Zm-5.217 2.1681c-1.481-1.6115-1.094-1.3184-2.8-2.2267.171-2.4319 1.491-.6152 2.21-.6152 1.658-.0293 4.189-.7911 5.003 1.6115-1.146 1.9631-3.793-3.2526-4.413 1.2304Zm-3.581-9.1414c-.83.2637-1.962-.8793-2.406 1.2303-.181-.7032-.78-1.8458-1.198-.9668-.566-1.0255.309-1.1718.604-1.875.139-1.758-1.542.9666-2.6-1.2602.42-1.9338 1.992-.4102 2.604-.293.878.1172 1.734.0295 2.406.3225.704.293.499 1.1425.995 1.582 1.16.9962 2.689.0296 3.603 1.2602-1.258.3809-2.382 1.3771-4.008 0Zm-2.824 7.2077c-1.809-2.2854-2.75-.3808-4.402-1.9337.65-.9376 1.071-.9964 2.203-.6155.233.0879 3.478-.3515 2.199 2.5492Zm-2.177-8.8192c1.462 1.7287-.928 2.9592-1.208.6152.321-.6153.934.2052 1.208-.6152Zm8.819-.879c-.941.293-1.637 1.7285-3.008-.0295.885-.5567 1.893-.5272 3.008.0295Zm3.397 1.9045c-.134.4102-.268.8203-.403 1.2598-.397-.3223-.799-.6445-1.2-.9668.134-.4102.271-.8207.405-1.2602.398.3223.799.6449 1.198.9672Zm-1.172-10.4015c-.381.8497-1.262-.7326-1.602.3222-.918-1.0841.96-1.4942 1.602-.3222Zm-18.027-1.6997c.466-2.0217 1.721-.2637 2.607-.293-.677 1.0255-1.605.8204-2.607.293Zm-2.403-.3221c-.426.293-1.538 1.7287-2.201-.9669.254-1.2599 1.359.967 1.8.6447.121-.0879 1.43-.967 2.402.3222-.306 1.4064-1.325-.4688-2.001 0Zm-3.041 12.5698c-1.557-2.5491-2.866-1.9925-4.598-4.4537 2.1-1.6701 3.362 1.553 6.207 2.5492-.263 1.9631-1.204.6446-1.609 1.9045Zm-5.399-3.516c-.27-.2051-.536-.4103-.803-.6447.135-.4102.271-.8204.406-1.2306.265.2051.532.41.802.6151-.136.4102-.27.85-.405 1.2602ZM399.54 27.6637c.203-2.1975 1.247-.41 2.001.0295-.452 1.0255-1.148.8788-2.001-.0295Zm-1.033 9.4347c-.942-1.6408 1.167-1.6409 1.809-.9377-.345 1.5529-1.381-.205-1.809.9377Zm-7.812-.6738c-.758-2.7249 1.798-.3224 1.809-.9377 1.013 1.9631-1.503.0294-1.809.9377Zm-.428 9.1121c-.773.0293-.703-.0292-1.198-.9668 1.03-1.172 2.632-1.7578 3.003.0295-.022-.1172-1.465.908-1.805.9373Zm-1.782-6.9438c-.081.0586-.755.9373-.801.9373-.161-.0293-.811-1.5529-1.397-1.9045-1.517-.8497-2.516.9085-4.011-.0291.27-1.9045 1.217-.5273 1.808-.9082.204-.9376-2.26-1.3771-2.607.293-1.498-1.8752-2.282-.2931-3.601-1.2893.244-1.4943.957-.7325 1.603-.293.738-.2051 1.339-1.055 2.009-1.5824.754.8204 1.189.5568 1.801.6447.758.1172 1.63.0586 2.608-.293.276-.0879.999-.6152 1.199-.6152.52-.0293.114.8498.198.9377.429.5274 1.11-.8497 1.607-.293 1.618.9083-.125 3.5453 2.191 4.102-.087 2.051-1.166 0-1.605.293-.073.0586-.127.6443-.2.6443-.194.0293-.634-.7615-.802-.6443Zm-12.441 5.8892c-.284-.3809-.196-.9376-.597-1.2599.241-.4395.605-.293.806-.9376.284.3809.196.9375.598 1.2598-.241.4395-.601.2931-.807.9377Zm-10.995-7.9402c.732 2.9593 1.96-1.3478 0 0Zm-3.829 7.2077c.23-1.5529 1.053-.293 1.408-1.2599.911 1.0548-.764 2.4612-1.408 1.2599Zm-1.01 3.1351c.2-.6153.401-1.2599.605-1.9045 1.465.0293.267 3.7504-.605 1.9045Zm-7.803-3.8385c-.267-.2051-.532-.4099-.803-.6443.14-.4102.271-.8205.405-1.2307.267.2051.536.4101.803.6152-.134.4395-.271.8496-.405 1.2598Zm-9.414-1.9628c.845-1.3478 1.893-.0001 3.007.0292.65.0293 1.396-.7913 2.003.0291-.845 3.4281-4.081 1.9927-5.01-.0583Zm-3.952-17.3165c.42-.6153.926-.879 1.6-.293-.422.6153-.926.879-1.6.293Zm-2.057 17.287c.89-.4102 2.477-.9375 2.803.6447-.784.4981-1.756.1171-2.803-.6447Zm3.475-23.2348c-.423.6153-.925.879-1.605.293.245-1.4943.956-.7325 1.605-.293Zm-8.083 23.4986c.452-.9962 1.148-.8791 2.001.0292-.451 1.0255-1.148.8791-2.001-.0292Zm1.221-6.8855c-.511 1.8166-1.564 1.0255-2.608.293.516-1.8166 1.565-1.0255 2.608-.293Zm-4.801-2.2561c.717-.7911 1.447-1.5824 2.602-.2639-.51 1.7873-1.561 1.0257-2.602.2639Zm-.829 8.8191c.452-1.0255 1.15-.879 2.005 0-.452 1.0255-1.152.9083-2.005 0Zm-.984-6.2995c.426-.3516.846-.7324.405-1.2598.667-1.4357 1.561 1.2013.795 2.1975-.397-.293-.798-.6154-1.2-.9377Zm-5.776-11.6905c.676-4.1899 3.129.0878 4.609-.2638-.89 3.1644-3.022.4103-4.609.2638Zm.368 11.3392c-.272-.7325.052-1.7873-.797-2.1975.678-1.0255 1.607-.8499 2.606-.3225-.325 2.1682-1.484.3518-1.809 2.52Zm.581 5.977c.737 2.9593 1.965-1.3478 0 0Zm-4.4-.3517c.946-.2344 1.726-1.289 3.003.0295-.776 1.0841-1.702 1.4355-3.003-.0295Zm-2.562-16.994c-.535-.2051-3.393-1.0253-2.996-1.582.693-2.5491 2.701 1.2306 3.607-.293.789.9669.571 2.2852-.611 1.875Zm-4.586-6.0065c.339-1.5529 1.379.2054 1.805-.9373.898 1.4064-1.006 2.4023-1.805.9373Zm-1.477 24.8172c-.536-2.0217-2.281-.1759-1.596-2.8422-.123 1.8752 2.606-.0585 1.596 2.8422Zm-2.748-19.5137c-1.058-1.7287.962-1.465 1.604-.293-.383.8204-1.266-.7325-1.604.293Zm-1.232 10.0499c.134-.1758 1.202-.4104 1.404.3221.539 2.1096-2.546 1.348-1.404-.3221Zm-1.813 2.5196c-.853-.9083-1.549-1.0546-2.001-.0291-.328-1.0548-1.295-1.7581-.993-3.1352-.502-.2637-.704.8496-1.006 1.5528-1.432-2.1096-2.541-2.7833-4.003-1.582-.477-.7032.2-1.6408.609-1.9045.179-.1172.624.7619.799.6447.743-.5274.638-.5567 1.604-.293 1.112.2637 1.426-.4395 2.001 0 .887.7032.27 1.3771.795 2.1975.814-.2637 1.831-2.7252.799.6443.525-.1758.973-.6445 1.408-1.2598.655.7325.565 1.8165-.012 3.1643Zm-5.221 5.3035c-.489-.6739.321-1.1427.803-.9376 1.236.0586 2.143-1.4357 3.604-.293-1.308 4.6294-2.497-.0586-4.407 1.2306Zm-5.811-.6738c.965-2.1682 3.037-.2051 4.611-.293-1.18 1.8166-2.898 1.0255-4.611.293Zm3.664-19.1623c.265.2051.532.4395.797.6446-.13.4102-.269.8497-.399 1.2599-.271-.2344-.534-.4396-.803-.6447.134-.4102.269-.8203.405-1.2598Zm2.403.3516c-2.403 1.7873 2.074 2.6956 0 0Zm3.397 3.4574c-.722 1.3478-1.958.2051-3.003 0 .772-1.0841 1.698-1.4357 3.003 0Zm-11.817-2.2854c-.608-.1172-1.064 1.582-2.402-.3225.088-2.051 1.167 0 1.603-.293.053-.0586.154-.6443.202-.6443.696.1172 1.968 1.0253 1.998 1.582-.566 2.0217-1.025-.2343-1.401-.3222Zm-10.244 8.4384c.532-1.2013 1.48-.3809 2.012-1.5529.831 1.5529-1.04 3.3402-2.012 1.5529Zm-2.007 1.5528c-1.367-.7032-2.289.7326-3.211 2.1683-.62-.7325-1.835-.5566-2.601-1.2598-.761-.7032-2.004-1.9632-1.392-3.4868.967.5567 1.454 1.3476 1.193 2.5196 1.657.7032.731-2.1682 1.81-2.4905 1.005.9962.895 2.344 1.606-.293.75.9083 1.195.4104 1.801.6155 1.348 1.3478.426 2.5199 2.194 2.5492.125 2.0217-1.949.7616-1.4-.3225Zm-4.63 8.1453c-.271-.2344-.536-.4392-.803-.6443.137-.4102.271-.8207.406-1.2602.266.2051.532.4396.798.6447-.134.4102-.266.8203-.401 1.2598Zm-3.982-9.4638c.532.4102 1.068.8496 1.598 1.2598-.233 2.5491-3.173 1.1428-1.598-1.2598Zm-.229 10.0498c-1.076-1.4064-1.662-.498-2.603-1.2598.962-.7325 1.791-2.0802 3.207-.6152-.199.6153-.403 1.2597-.604 1.875Zm-3.176-10.4015c.682-2.051 1.91-1.4941 3.209-.6151-.175 1.5236-.726.5567-1.204.6446-.521.0879-1.501.6737-2.005-.0295Zm-1.232 10.0502c-1.656-1.5236-2.593.3516-4.405-1.9045 1.108-1.6115 3.052.7618 4.211-.586.532.4102 1.07.8203 1.602 1.2598-.508.2344-.792 1.5237-1.408 1.2307Zm-1.925-26.7217c.266.2051.536.4101.798.6152-.131.4395-.265.8496-.402 1.2598-.265-.2051-.536-.4099-.801-.6443.135-.4102.269-.8205.405-1.2307Zm11.003 6.3582c.911 1.0255-.761 2.4611-1.407 1.2598.226-1.5822 1.051-.2929 1.407-1.2598Zm-16.862 10.255c-.211.0879-.594-.7326-.799-.6447-.51.2637-.138 1.1721-.805.9377-.282-.0879-.523-.4983-.799-.6155.394-2.3733 1.809.1173 2.406-1.2598.321-.0586.142 1.5237-.003 1.5823Zm-2.414 2.8127c-.131.0879-1.514.4103-2.403-.3222-1.054.293-2.934 1.4356-3.603-1.2893.413-1.758 1.218-1.6114 2.207-.6152.269-1.3771.715-1.9048 1.408-1.2602-.099.6153-.348.469-.607.3225-.502.9083 1.51 1.1428 1.805.6447.65.4395 1.43 1.5233 1.801.6443.486.7911.712 1.7289 1.193 2.52-.252 1.2599-1.357-.9669-1.801-.6446Zm-7.632 6.5633c.204-2.2268 1.247-.4102 2.005 0-.451 1.0255-1.151.879-2.005 0Zm-4.407-.3517c.98-2.2268 2.457-2.0805 4.211-.6155-.927 2.4905-2.783.5276-4.211.6155Zm1.251-16.3493c-.137.4102-.271.8203-.405 1.2598-.267-.2344-.532-.4395-.799-.6446.134-.4102.267-.8204.405-1.2599.265.2051.532.4396.799.6447Zm-2.196-2.5492c.678-1.8166 1.761-.2637 2.603-.293.369 0 .369.3223.603-.293.356-.9669 1.319.2929 2.406.3222.244 0 .146-.6152.601-.3222.635.4395 2.012-.9082 3.405.3517 1.163.7911 1.458-2.5786 2.808-.9085-.956 1.7873-2.334 1.5821-3.613 1.8458-.397.9669 2.132 2.9886 2.399 1.9045.835.6739-.765 2.4907-1.411 2.813-.383.2051-1.525.0586-1.2-.9376.619-1.9338-2.595 1.0548-3.206-.9669.206-.6153.409-1.26.611-1.8753-.696-.1172-1.087-.6447-1.802-.6447-.175 0-1.545.586-1.605.293-.204-.9669-.17-.4979-.601.3225-.667-.5274-1.335-1.0841-1.998-1.6115Zm-10.825.879c-.267-.2051-.532-.4102-.799-.6446.136-.4102.271-.8204.405-1.2599.267.2344.536.4396.799.6447-.134.4395-.271.8496-.405 1.2598Zm-2.763-13.21446c-.683-.879-1.648-1.61144-.997-3.16434.336 2.2854 2.386-.43933 2.8 2.22697-.425 1.1427-1.461-.61553-1.803.93737Zm-9.291 24.14336c.203-.6446.405-1.2599.605-1.9045.536.4395 1.068.8498 1.602 1.2893-.409 1.7287-1.358.9668-2.207.6152Zm-1.396-1.9045c-.267-.2051-.532-.4103-.799-.6447.134-.4102.27-.8205.405-1.2307.267.2051.532.4104.799.6155-.137.4102-.271.8497-.405 1.2599Zm-1.438 12.2473c-1.03-.7911-.338-.8496.004-1.5528-1.064-.8497-2.242-2.2268-2.804-.6739-.579-2.8714 2.39-2.3149 3.81-.9085-.597.9376.332 3.5454-1.01 3.1352Zm-5.399-3.4865c.413-1.758 1.352-.9671 2.205-.6155-.414 1.758-1.217 1.6117-2.205.6155Zm-13.155-24.612c-.883.2637-1.652.2051-2.604.293-.28 0-.976.6152-1.202.6152-.57-.0586-1.087-1.3477-1.404-.3222-.967-1.758 1.129-1.8167 1.213-3.7798.559.2637 1.036 1.0547 1.602 1.2598.558.2344.795-.5859 1.202-.6152.54-.0293 1.105 1.4063 1.4.3222.439.4688-.028 1.4066-.207 2.227Zm-12.222.5273c-.244.0293-2.774-.0295-1.797-2.227 1.178.1465.918.469 2.6 1.2894-.16.9083-.455.879-.803.9376Zm-5.86 16.6132c-.265-.2051-.532-.4104-.797-.6155.135-.4395.269-.8496.404-1.2598.267.2051.533.41.799.6151-.135.4395-.269.85-.406 1.2602Zm-.953-15.7342c-1.074-.9083-1.147.4103-1.602-1.2598.463-2.6663 2.695-.9084 1.602 1.2598Zm-2.05 15.7342c-.267-.2344-.536-.4396-.803-.6447.202-.6153.405-1.2599.611-1.9045.7.3516.494 1.1427.995 1.6115-.241.4395-.603.2931-.803.9377Zm-36.679 3.1935c-1.025-1.6115.999-1.3185 1.206-2.1975.769 1.6994 1.503-.1172 2.009 0 .543.1172.061.7617.194.9668.188.2344 1.45.0588 1.603-.3221.588 2.344-3.653.9375-5.012 1.5528Zm1.374 9.7568c-.095-.2344-.937.4102-1.002 0-.015-.1172.436-1.2597.405-1.289-.474-.3516-1.255-.6448-1.802-.6155-.325 0-.918.6155-1.204.6155-.586 0-.877-.3811-1.4-.3225-.874.0586-.777.4104-2.005-.0291-.674-.2344-.846.9376-2.005 0 .172-2.0803 1.003-.7326 1.809-.9377.56-.1172 1.171-.7912 1.803-.9377.195-.0293.628.7619.799.6447.066-.0293.142-.6152.204-.6152.179 0 .646.7324.799.6152.734-.4981 1.794 1.2013 2.608-.293.677.879 1.648 1.5821.991 3.1643Zm-14.027-.117c-.812.7618-.644-.7911-1.198-.9376-.85-.2344-1.623 1.4944-3.006-.0292.293-1.3478.876-1.0551 1.408-1.2602.813-.293 1.896-.4394 3.405.3517-.204.6153-.404 1.26-.609 1.8753Zm-1.37-9.7568c.662-.3516 2.063.6152.597 1.2598-.743.3223-1.633-.7324-.597-1.2598Zm-9.444 9.0535c.244-1.4943.955-.7325 1.605-.293-.427.6153-.929.879-1.605.293Zm-11.604-6.0652c-.738.8497-.749.1174-1.606.3225-.562.1172-2.154.8497-2.206.586-.4296-2.051-1.2137 1.5529-2.8023-.6446-.4238-.5567-.519.879-.8065.9376-.2221.0586-.5619-.5862-.7989-.6155-.8812-.1172-1.9247 1.2599-2.6023.293.28-1.4357 1.7099-1.1133 2.4062-1.2598.3902-.0586.9577.469 1.4039.3225.7243-.1758.616-.6446 1.6035-.293 1.3274.4688 3.8534-.2346 5.4104-1.2015-.051.2051.619 1.1426.603 1.2598-.168.8497-.391.0586-.605.293Zm-7.6392 8.1162c.2689-2.4319 1.5607.0294 2.4026.3517-.6385.6446-1.5793-.1173-2.4026-.3517Zm-2.0124 3.1352c-.2669-.2051-.5339-.4101-.799-.6152.2147-1.1134.7263-.7912 1.0063-1.5823.7187 1.0255.532 1.6701-.2073 2.1975Zm-6.0054-1.6115c.4219-.6153.9259-.879 1.6035-.293-.4256.6153-.9296.879-1.6035.293Zm-.9819-7.8524c.14-.4395.2706-.8496.4088-1.2598.2632.2051.5283.4101.799.6152-.1382.4395-.2707.8496-.4089 1.2598-.2613-.2051-.5283-.4101-.7989-.6152Zm-2.0012-.0295c-.5657.5567-2.6509 1.4945-3.2091.6155-.0728-.1172.5694-1.6409.0038-1.5823-.8121-.586-.463 1.377-.4033 1.2598-.9782 1.8459-1.5177.2053-2.8039.9085-.9016-.586.5321-2.3439.6086-3.4573.4294-.0586.8606-.1175 1.4038.3513 1.4038-.7325 2.5146-2.8421 4.6073-.293-.7393.5567-.926 1.2013-.2072 2.1975Zm-1.4263 7.5302c.2856.3809.1979.967.5992 1.2893-.4312 1.3478-2.1561-.9377-.5992-1.2893Zm-8.1728-13.5658c-.463.1172-.8606 1.553-2.0031-.0292-.4331-.5274-.5133.8494-.8046.9373-.3901.1465-1.499-.5857-1.8051-.6443-.1531 0-.2296.4394-.5974.3222-.2856-.0879-.5227-.5275-.8027-.6447 1.5121-3.9262 4.0976-2.7249 6.4199-2.7835-.4294-2.8421-2.1114.5275-2.8002-2.2267.5302-1.6701 1.3833-.0001 2.0068.0292 1.0379.0586 2.2738-1.0253 3.405.3225-.9222 2.4026-1.163-1.7876-1.8089.9373-.3939.5274 2.13 1.8461 2.6042 1.2894.8998 1.4357-1.3647.674-1.6092 1.8753.6926.6446 1.0902-.1175 1.8014.6443-.6347 1.4064-1.7174.293-2.606.293-.2968 0-1.0286-.4393-1.4001-.3221Zm7.2226-3.7212c-.532.6153-1.2302.4689-2.0031-.0292.2054-2.1975 1.247-.4103 2.0031.0292ZM67.462 50.1077c.4238-.6153.926-.879 1.6055-.293-.4238.6446-.9259.879-1.6055.293Zm-7.3103-34.9548c1.1742-1.2892 2.7759-.557 4.4094.3513-1.1014 1.6408-2.9066-.0876-4.4094-.3513Zm-.5059 35.8338c.2987-.6739.2726-1.1719.0037-1.5528.3062-.6446.5134-.0294.4014.3222 1.3516 1.6701 2.158.7325 3.4013 1.9045-.8755 1.6408-2.2682.8497-3.8064-.6739Zm-7.7154-33.695c-.3827-.3223-.0616-1.0254.0037-1.5528.7691-.3516.7112.2341 1.2041.9373-.3211.6153-.9334-.2049-1.2078.6155ZM32.1872 55.2058c-.1493.1465-.6459-.7323-.8027-.6444-.1083.0879-.7206.9667-.8009.9374-.6683-.0586-1.4187-1.7871-1.8052-.6444-.5768-.9376.1643-1.0549.4051-1.2307.6161-.4981 2.5407-.9962 3.6085-.293-.3024.3516-.28 1.5821-.6048 1.8751Zm-6.0129-.0292c-.112.1465-.7916 1.4063-1.0062 1.5528-.4779.3223-1.542-1.2891-2.005-.0292-.3285.9083-2.2028-.9668-3.2052-.9668.2109-1.758 1.6185-.4981 2.2102-.586.3753-.0586.8532-.5275 1.2023-.6447.3285-.0879.6571.1171 1.0024.0292.4014-.1465.799-.4394 1.2041-.6152.4088-.2051.9185.1465 1.2022-.6446.504.9376-.2259 1.3478-.6048 1.9045Zm-3.9091-33.0504c.42-.6446.9241-.9085 1.6017-.3225-.4237.6446-.9259.8792-1.6017.3225Zm452.8138 4.8345c.911 1.0255-.761 2.4613-1.407 1.2307.229-1.5529 1.051-.2931 1.407-1.2307Zm9.732 29.007c-.952-1.2306-3.095-.1465-3.198-2.5491 1.378-.3223 3.172 1.3478 3.814-2.4905-.416.1465-.2-.9377-.198-.9377-.243-.3223-.678.2344-.601.293-.67-.6739-.708-1.3769-1.396-1.875-1.233-.879-3.271-.5862-3.402-1.934.543-4.3071 2.666-1.0546 3.42-4.3655-.926.0586-1.756-1.0549-2.604-1.2893-.043 0-.153.6153-.2.6446-.145.0879-.627-.6153-.799-.6446-.608-.0879-.711.2637-1.206.6446-.321.2051-.317-1.0547-.198-.9668-.455-.3223-.892.3515-.797-.6447.663-1.7287 3.999.1465 2.414-2.7835-.16.6153-.285.3516-.603.293-1.006-.1465-2.257-.3808-3.205-.9668-.838-.5274-2.078-1.0257-2.194-2.52.525-1.2013 1.955.674 2.804.6447.12 0 .667-.8498.801-.9377.176-.1172.62.7326.799.6447.409-.2637 1.087-1.2013.609-1.9045-1.232.5567-2.511-.381-3.807-.6447-.054-.0293-.145.5862-.199.6155-.603.3223-1.193-1.0549-1.802-.6447-.424.293-1.335-.7618-1.805-.6446.838-1.2306 2.016-1.2012 2.811-.9082.394.1465.405-.3225.601-.3225 1.076.0586 2.915.1759 3.405.3517.577.2051 1.005.1756 1.401.3221.985.3516 1.463.762 2.003.0295-.986-1.8752-2.911-.3811-2.797-2.227.506.4981.823-.5857 1.202-.6443.624-.0879 1.212.8789 1.802.6738.134-.0586.302-1.084.405-1.2598.743-1.3478 2.946 1.0545 3.011-1.5532-.586-1.4357-.765-.4686-.999-1.582-.065-.3223.307-.8789-.198-.9668-1.166.8204-3.164-2.3733-4.4-1.9045-.429-.4102-.918.4101-.802-.6447 1.557-3.7797 3.026 1.8164 4.812-.9085-.425-1.2306-1.4-1.6115-2.399-1.9045-.168-.0293-.965.6448-1.202.6155-.347 0-1.768-.5862-1.801-.6155-.054-.0586.554-2.1682-.394-1.9045-.554.3223-2.264-.2342-2.406-.3221-.42-.293-.417.3223-.601.293-.65-.0879-1.514-.8205-2.203-.9377-2.716-.5274-5.177-1.0255-7.609-1.3185-.054-.0293-.146.5862-.206.6155-.142.1172-.625-.6154-.797-.6447-1.032-.1172-2.264-.0878-3.201-.9668-.517.7325-1.12 1.0545-1.806.9373-1.006-.5274-1.821-.2049-3.003-1.582-.256.4395-.833.8789-1.201.6152-.784-.5567-1.515-.0292-2.406-.3222-.379-.1465-.433.3223-.601.293-.409-.0293-.795-.9376-1.2-.9376-.193-.0293-.568.9669-.805.9376-.836-.1172-1.878-1.26-2.6-1.2893-.062 0-.142.5861-.2.6447-.176.1172-.61-.674-.803-.6447-.448.1172-.634.7034-1.204.6155-.651-.0586-1.504-.8791-2.197-.9377-.06-.0293-.149.5566-.205.6152-.157.1172-.62-.6154-.798-.6447-.063 0-.143.5862-.205.6155-.149.1172-.623-.5862-.803-.6155-1.336-.1465-3.451.3226-4.403-.3513-.755-.52743-1.412.4102-2.002 0-.474-.35163-.309.2344-.604.293-.693.1172-2.058-.0881-2.405-.3225-.433-.293-.386.3223-.601.293-.685-.0586-1.564-.87906-2.201-.93766-.172-.0293-.584.93766-.803.93766-.371-.0293-.834-1.02545-1.2-.96685-.474.0879-.857 1.46495-1.407 1.25985-.988-1.4943-1.046-1.5529-2.399-1.9045-1.815.3223-3.616.76185-5.808-.67385-.584.8497-1.721.93749-2.206.61519-.406-.293-.437.35177-.602.32247-1.334-.3223-1.502-.99632-2.604-1.28932-.162-.0586-.961.61548-1.202.61548-.984-.0293-1.744-.55687-2.402-.32247-.712.2051-.172.70325-.803.93765-.562-.4102-.784-.99631-.995-1.58231-.198.879-.639-.1172-1.006 0-.26.0586-.516.93766-.807.93766-.762-.0293-1.829-1.23043-2.595-1.28903-.171 0-.599.90807-.806.93737-1.109.1172-1.779-1.17183-2.604-1.28903-.258-.0293-.777.67396-1.203.64466-.688-.0879-1.312-.58606-1.801-.64466-2.227-.293-5.724.79116-7.413-.38084-.754-.5274-1.411.3809-2.005 0-.75-.5274-1.411.38073-2.001-.02947-.383-.2637-.474.35177-.601.32247-.711-.2344-.056-1.17206-.799-.64466-.153.1172-.624-.61536-.803-.64466-.058 0-.138.58606-.2.64466-.175.1172-.605-.70326-.799-.64466-.27.0879-.513.93766-.806.93766-.39.0293-.805-.93766-1.199-.93766-.19-.0293-.573.93766-.806.93766-1.641-.0586-3.125-.79122-4.602-1.28932-.597.3223-1.198.61548-1.807.90848-.894.1172-1.781-1.11363-2.6-1.26013-.051 0-.15.58617-.204.61547-.153.1172-.619-.61547-.799-.61547-.061 0-.138.58617-.205.61547-.153.1172-.616-.61536-.793-.64466-.066 0-.142.58606-.206.64466-.157.0879-.62-.64466-.797-.64466-.063 0-.144.58589-.205.61519-.153.1172-.62-.61519-.799-.61519-1.41-.0586-2.319-.0293-3.207.586-.153.1172-.62-.61518-.799-.61518-.062 0-.142.58588-.204.61518-.153.1172-.62-.61518-.799-.61518-.061 0-.138.58588-.201.61518-.142.0879-.633-.61535-.801-.64465-.803-.1172-1.944.00011-2.403-.32219-.756-.5274-1.411.41003-2.003-.02947-.476-.3223-.31.26387-.605.32247-1.09.1758-2.074-.79104-3.201-.96684-.051 0-.146.58588-.204.61518-.043.0586-1.418-.32218-1.4-.32218-.984-.3516-.879.11708-1.603.32218-.148.0293-1.404-.32218-1.4-.32218-.475-.3516-.31.2344-.603.293-.697.1172-2.06-.08807-2.407-.32247-.444-.32231-.367.32247-.601.32247-.405-.0293-.795-.93783-1.2-.96713-.189 0-.568.96695-.805.93765-.745-.0293-1.392-.93754-2.199-.96684-.061 0-.138.58606-.2.64466-.175.1172-.606-.67396-.802-.64466-.456.0879-.62.76169-1.204.61519-.557-.1172-1.042-1.05475-1.6-1.25985-1.094.6153-2.016 2.05112-3.209 2.16832.306-.9083-.334-.26387-.402-.32247-.547-.4395-.793-.93743-.998-1.58203-1.652 1.1427-3.639.67396-5.804-.67384-.517.7325-1.12 1.05457-1.809.93737-1.396-1.8752-1.809.93766-3.205-.96684-.678-.0293-.839 2.37341-1.608 1.87531-.153-2.1389-2.249-.2344-3.401-1.9045-.355.9669-.515 1.08399-1.204.61519-.47-.3223-.317.29317-.601.32247-.685.0879-1.404.05843-2.001-.02947-.906-.0879-1.074-1.14276-1.806-.64466-.16.1172-.608-.64449-.799-.61519-.291.0293-.868.61519-1.202.61519-.405 0-.795-.90807-1.2-.93737-.23-.0586-.82.61518-1.204.61518-1.225-.0293-2.182 0-2.606.293-.047.0293-1.419-.32218-1.4-.32218-1.516-.5567-2.1 1.08404-3.405-.35166-.383 2.4319-1.266 2.4612-2.211 2.1975-1.431-.0293-1.48-3.340201-2.398-1.9045.918 1.0548-.964 1.465-1.604.293.112-.3516-.095-.96707-.401-.32247.44.5274.022.90853-.405 1.26013-.934-.7325-1.864-1.49448-2.797-2.22698-.586 1.0548-1.437-.0293-2.005 0-.213 0-.554.93766-.803.93766-.371-.0293-.838-1.054742-1.2-.96684-.407.0879-.235 1.34786-.805.93766-.853-.586-1.465 1.23048-2.206.61518-4.641-3.0472-8.225-1.05485-12.418-1.963155-1.63 1.845905-3.657 2.607645-5.408-.351658-.586.849703-1.719.937773-2.205.615473-.584-.4102-.379.64466-.802.93766-.18.1172-.605-.70326-.803-.64466-.988.2637-1.436 1.14258-2.205.61518-.829-.586-1.032 2.02176-1.805.93766-.795.4395-1.94-.7618-3.004-1.6115-.554 1.8166-1.219.52746-1.805.93766-.256.1758-.401-.99626-.194-.93766-1.049-.234399-2.165.87906-3.209-.966841-1.49.8204-3.164.791041-5.005-.0586591-.646 1.4064001-1.45.0000578-1.805.9376601.007-.0293.459 1.02556-.204.64466.17-.791104-.412-1.20142-.996-1.5823201-1.305 1.2013001-2.974.6446581-4.412 1.2306601-.94-.761802-1.527.14639-2.602-1.2893146-.168.9083006-.668-.1465004-1.002 0-.913.3516006-1.212 2.2853446-2.007 1.5528446-.105-.0879.526-1.6113293.004-1.5820293-.809-.1464997-.926 2.9885993-1.811 2.4904993-.777.6446-1.481-.87906-2.199-.93766-.138-.0293-.631.87906-.807.93766-.185.0586-1.348-.29317-1.404-.32247-.532-.2637-.265-1.37693-.995-1.58203-.298.7032-.502 1.81654-1.006 1.55284.142-.7618-.127-1.318613-.394-1.875313-1.155 2.578403-3.067-.205101-4.211.585999-.176.1172-.601-.673784-.799-.615184-.269.0586-.514.879058-.805.937658-.521.0586-1.058-1.260074-1.4-.322474-.271.732504-1.747-.058485-2.005-.029184-.31.0586-.857.556588-1.204.615188-.972.1758-1.826.293-2.602.293-.26 0-.547-.52729-.803-.61519-.397-.146499-.405.293-.601.293-1.083-.0586-1.955-.673957-2.804-.644657-.263 0-.905.527577-1.204.615477.737-.2051.685 1.87502-.004 1.58202-.192-.0879-.433-.99625-.196-.93765-.634-.1465-.997.3809-1.605.293.226-.9962-.78-1.347801-1.4-1.904501-.471 1.113401.007 1.758051-.403 2.842151-.803-.9083-1.763.32231-2.608.29301-1.294-.0586-2.614-1.69935-3.807-.67385.069-.5567.387-1.23054.004-1.55284-.726.6739-1.193 2.2268-1.602.293-.778 1.9631-2.021.70326-2.809.93766-.374.0879-.708 1.02538-1.204.61518.226-.9962-.781-1.3478-1.397-1.9045-1.036.9083-1.866 2.75426-3.015 3.13516.215-1.2306-1.097-.55676-1.801-.64466-1.35-.1758-2.83-.1465-3-1.6115-1.251.5567-3.194 1.31839-4.211.61519-.443-.3223-.37.3223-.603.293-.407 0-.79-.87877-1.195-.93737-.288-.0586-.745.70308-1.208.61518-1.178-.2344-2.425-1.17211-3.601-1.28931-1.094.6153-2.016 2.05111-3.209 2.16831.291-1.6408-.814.08802-1.404-.32218-.788-.4981-.666-1.34792-1.396-1.87532-.329 1.0841-.827 1.34786-1.408 1.23066-.886-.9083-1.99-.70326-2.804-.64466-.565.0293-.733.49799-1.204.61519-.517.1758-.823-.35149-1.4-.32219-1.635.0879-3.34 1.49425-5.41-.35165-1.056 2.1682-2.41.2344-3.606.293-.09 0-.391.26387-.605.32247-.59.0879-.682.23428-1.202.61518-.154.0879-.62-.64465-.799-.64465-.062 0-.142.58617-.2.61547-.176.1465-.607-.67407-.803-.61547-.991.2344-1.755 1.69945-2.406 1.23065-.833-.5567-1.036 2.02176-1.809.93766-.5-.4395-.295-1.26001-.995-1.58231-.861.6739-1.766.2344-2.608.293-.521.0293-.788.55687-1.202.61547-.661.1172-1.148-.67396-1.802-.64466-.287.0293-.875.58606-1.204.64466-.257 0-.539-.64466-.797-.64466-.175 0-.592.90836-.806.93766-.249 0-.559-.55676-.803-.64466-.575-.2051-1.1.6446-1.6.293-.608-.4102-1.534-.0293-2.005 0-.612.0293-1.01.2637-1.605.293-.995.0586-2.009-.1172-3.004 0-.299.0293-.868.55658-1.204.61518-.185.0293-.877.0879-1.002 0-.463-.3223-.331.293-.602.293-1.045.0879-2.031-1.0255-3.003 0 .608.5274 1.411.9962.793 2.1975-.995-1.5529-1.841-.11708-2.005-.02918-.153.1172-.62-.61547-.797-.61547-.063 0-.144.55687-.205.61547-.237.1758-1.531-.43956-1.802-.64466-.463-.3223-.338.29289-.601.32219-.743.0293-1.437.14661-2.005-.02919-.677-.2051-1.239-1.90444-2.199-.96684.566.6446-.276 1.08416-.806.93766-.536-.5274-.977-.26387-1.4-.32247-.4559-.0293-.889-.38079-1.4042-.32219-.1569.0293-.2427 1.17195-.4033 1.25985-.2744.1758-.8979-1.02556-1.2003-.93766-.7262 1.3185-1.1294 2.5784-2.8114 2.4905-1.1555-.2344-2.2047.08807-3.601-1.28903-.4014 2.84213-2.1524.38079-3.209.61519-.1382.0293-.2856 1.08415-.4014 1.23065-.0653.0879-.8942-.0293-1.0025 0-1.2806.41019-2.5668.41029-3.2052-.96684-1.1089.5274-.1158 2.22673-1.4113 2.81273-1.7865-.8204-3.6011.1173-5.0086-.0292-.9409-.0879-2.1226-.9379-3.2016-.9672-.4349.586-.8867 1.0844-1.4075 1.2602-1.7548-1.3478-4.0043 1.2013-5.0068-1.6115-.4293 1.1134-.9371 1.875-1.6035 1.875-1.1481.586-1.8892-.0878-3.0074-.0292-.071 0-.1363.5861-.2016.6447-.1755.1172-.6049-.7033-.8028-.6447-.3995.1172-.6739.9961-1.2022.6152-.7542-.5274-1.4113.4102-2.0012 0-.4779-.3223-.3061.2637-.603.293-.9109.1758-1.7342-.4101-2.6023-1.2598-1.7715 2.1389-4.077 1.7578-6.0203 3.1056.5003.4395.2949 1.2309.9949 1.5532.2129-.6153.9596-.2347.8028.6443-1.29 1.3478-1.6801-.4686-2.9999-1.582-.4089 1.758-2.0535-2.3733-2.2066.586-.1904 2.051 3.0839-.9083 2.9999 1.6115-1.9321-.2051-3.5973.8495-5.6097.2635-.6142-.5567.1998-1.8459-.7952-2.1975-.8756 1.0548-1.8482-.6443-2.804-.6443-.1381 0-.6421.8494-.8064.9373-1.3049.6739-3.5506-.9373-4.4038-.3513-.1642.1172-.6123-.6447-.8027-.6447-.2912.0293-.868.6447-1.2022.6447-.4051-.0293-.7952-.9086-1.2003-.9672-.1904-.0293-.8681.5862-1.2023.6155-1.6017.1172-3.2743-.3808-4.413 1.2307.3864.4981.6272 1.7871-.0038 1.582-.6515-.2051-.9184.2052-1.1985-.9668-1.4448 2.9593-3.3844.674-5.2176 2.1683.2949-.2344.0877 2.4902-.8027.9373.0186.3516-.4705.9379-.4051 1.2602.1325.6153.6309-.2932.6029-.3225 1.1369.3809 3.8867.4396 3.6011 1.2893-.2521.4395-.4051 1.2307-.8046.9377-.4704-.3223-.3062.2636-.603.3222-.547.0879-1.163-.7912-1.8014-.6447-.5134.1172-1.0958.674-1.8034.9377-.5189.1758-1.4561.1463-1.8052.9081.2633.4102.7804.6449.5937 1.2602-1.4281-.6446-2.7741.7322-3.8101.9373-.5937.1172-1.4319-.0584-2.00122-.0291-.07281 0-.13069.586-.19976.6446-.15308.0879-.62349-.6446-.80271-.6446-.28748-.0293-.86432.7033-1.40009-.3222-.81392.3516-1.16674 2.93-2.21027 2.1975-.49843-.4395-.29497-1.26-.99875-1.5823-.91473 1.0841-.45549 1.7287-1.80891 2.4905-.96513-.9083-1.564381-.0295-2.20469.6151.991265 1.5236 1.83694.1174 2.00122.0295.17921-.1465.60482.6738.79896.6152 1.01367-.2637 1.88734-1.5528 2.80766-.9082.47417.3223.30989-.2639.60484-.3225 1.5121-.2637 2.95327.6155 4.60542 1.2894-.6758 1.1134-2.81144.7323-1.41134 2.8126.73174-1.9338 1.11444 1.0258 1.59614 1.2602.1138.0879.4312-1.0843.8064-.9085.6926.293.0803 1.1136.799.6155.1344-.0879.6403.5857.7971.6443.687.1758 1.5252-.2049 2.0068.0295.7542.3516.7318 1.6995 1.1985.9377-.8419-1.1134 1.5457-1.0256 1.4001.3222.5806-.879 1.5532-1.1135 1.8089-.9377.7505.5274 1.4113-.3807 2.0012.0295.4742.3223.3062-.2639.6011-.3225 1.1238-.1758 2.0871-.3807 3.0093.0295-.183 1.2013.5581.2634 1.1947.9373-2.059 1.8459-4.7398.7326-6.6196 3.4282-1.6596-.4981-3.1138-.0292-4.4131 1.2307 2.3148.9376 4.0509-.8497 6.4143.3516-.1755.7911-.6459 1.7287-.2091 2.1975 1.2265-.9669 1.7175 1.5528 2.7983 2.2267.9185.586 3.0037-1.0547 3.0037 1.5823-1.0547-1.0548-2.3223.3515-3.209.6152-.2147.0586-.5936-.7326-.8027-.6447-.1848.1172-.211 1.2016-.4033 1.2602-.2202.0879-.5693-.6154-.799-.6447-.1232 0-.6496.8791-.8027.9377-.8811.3809-1.9545.7616-2.8114.9374-.532.0879-.8008-.3222-1.4-.3222-1.4393 0-2.6023 1.2307-4.0062-.0292-.4275 2.6077-1.7902 1.0548-2.2103 2.1975-.1736.4688-.5787.2344-.6011.293-.2706.586.2259.7909.1942.9374-.2278 1.2892-2.91782.4689-1.80894 2.5199 1.22084-.5567 2.26814-1.9339 4.00614.0292 1.2396-.4395 3.5002-1.7872 3.6066 1.2893-.2744.8204-.8904-.0001-1.2078.6152-.1736.7911-.6403 1.7287-.2072 2.1975.1792-.4688.2595-.5566.6049-.3222.5301.3809-.1681 1.3477-.0075 1.5821 1.3422 1.8166 3.7784 1.9046 5.4081 1.9339 1.0136-.6446.3136-2.432 1.8089-2.5199 1.0454.4981.4984 1.846 1.7977 2.2269.2427-.4395.5675-.4688 1.0025 0 1.794-.2344 3.6701-.9376 5.4099-1.2306.9988-.1465 2.0778.205 3.0074.0292 1.0137-.1758 1.8426-.7324 2.8077-.9082.631-.1172 1.303.1465 2.0068 0 .6328-.1172 1.1219-.7912 1.8033-.9377.084 0 .3173.2639.3976.3225.7561.5274 1.3721-.6154 1.8052-.9377.1568-.0879.6235.6447.8027.6447.0616 0 .1419-.5862.1998-.6155.1717-.1172.6048.6741.8027.6155.631-.0879 1.1891-.8206 1.8052-.9085.0896-.0293.3173.2637.3976.293.476.3516.3099-.2637.6048-.293 1.1294-.2051 2.0125.1174 3.0037.0295.0728-.0293.1307-.5861.2035-.6447.7803-.5274 1.5102 1.377 2.0031.0292.2408-.6739.2408-.2636.6011-.3222 1.6763-.2637 3.5002-.4102 5.2102-.586.5245-.0586.8195.3515 1.4038.3222.28 0 .883-.5859 1.2041-.6152.4517-.0586.8624-.6154 1.2022-.6154.6888-.0586 1.2657.674 1.8052.6154.3024 0 .8606-.5861 1.2022-.6154.5432 0 .9521.381 1.4001.3224.8288-.0586 1.7473-.1465 2.6079-.293.8307-.1172 1.6801-.0586 2.606-.293.8401-.2051 1.9079-.8205 2.8039-.9084.6833-.0879 1.1351.6153 1.8015.6446.0504 0 .4238-.2929.6048-.3222 1.0828-.1758 1.7903-.0293 2.6042-.293.4928-.1465 1.2657-.8497 1.8089-.9376.6011-.0586 1.3329.6739 1.7978.6446.0728 0 .1343-.5861.2034-.6154.1755-.1172.6049.674.8027.6154.2651-.0586.5097-.879.8009-.9376.6758-.0586 1.1387.7032 1.8014.6446.3902 0 .6702-.967 1.2041-.6154.4704.3223.3211-.2637.6011-.293 1.0025-.1172 1.4393.2638 2.4063.3224.168 0 .5899-.9083.8027-.9376.6628-.0586 1.2713.7032 1.8033.6446.3902-.0586.6684-.9963 1.2004-.6154.4667.3223.3323-.2929.6048-.3222.6851-.0293 1.1276.6153 1.8015.6446.0579 0 .1419-.5861.2016-.6154.1531-.1172.6198.6154.7971.6154.0616 0 .1419-.5861.2054-.6154.1661-.1172.6048.6446.7971.6446.1531-.0293.6459-.8497.8069-.9376.179-.1465.601.674.799.6154.659-.2051 1.037-.8204 1.807-.9376.365-.0293.668.0292 1 .0292.456 0 .904.4103 1.404.3224.805-.1465 1.206-1.3478 1.803-.9376.475.3223.31-.2636.603-.3222 1.115-.1758 1.834.6444 2.804.6444.047.0293.415-.2637.601-.293.74-.1172 3.303.5567 3.609-.293.355-.9669 3.017-.2637 3.606-.293.525-.0293.788-.5566 1.205-.6152.659-.0879 1.148.7032 1.799.6446.301-.0293.807-.5568 1.204-.6154.963-.1758 1.466.2638 2.406.3224.18 0 .581-.9376.803-.9376.719.0293 1.247.6739 1.802.6446 1.152-.0586 1.497-.1173 2.204-.6154.168-.1172.609.6739.803.6446.336-.0586.773-.5566 1.202-.6152.194-.0293.868-.0879 1.005 0 .466.3223.319-.2931.601-.3224 1.105-.1172 3.459-.3515 4.002.0294.482.3516.293-.2051.607-.293.888-.2637 1.435-.3809 2.001 0 .803.5567 2.052-1.3184 2.804.6447.799-.9083 1.826-.762 2.808-.9085 1.144-.1758 1.484-.1171 2.204-.6152.165-.1172.613.6447.803.6447.299-.0293.861-.6447 1.204-.6447.7 0 1.118.7033 1.8.6447.296 0 .81-.5569 1.204-.6155.192-.0293.872-.0879 1.002 0 .588.4102 1.557.0881 2.005.0295.133-.0293.351-.2639.599-.3225.904-.1465 1.779.2931 2.407.3517.268 0 .808-.1465.998 0 .639.4395 1.499-.0293 2.005 0 .271.0293.811-.1174.999.0292.448.293.799-.5565 1.208-.6444 1.045-.1465 1.848-.2344 2.606-.293.612-.0293 1.353.6151 1.801.6444.613.0293.693-.2636 1.204-.6152.163-.1172.613.6446.798.6446.386-.0293.672-.9964 1.204-.6155.463.3223.338-.3221.601-.3221.401 0 .802.9375 1.2.9668.189 0 .575-.9377.805-.9377 1.262-.0293 2.497.7326 3.806.6447.073 0 .133-.5859.202-.6152.175-.1465.605.6738.801.6152.401-.1172.675-.9961 1.204-.6152.474.3223.306-.2639.601-.3225 1.265-.2051 2.615.7328 3.802.6742.31-.0293.781-.5861 1.204-.6447.532-.0293.809.3517 1.404.3517.269 0 .885-.6155 1.202-.6155 1.158-.0586 2.073.5861 2.804.6447.256 0 .144-.498.607-.3222.98.3516.859.0293 1.6-.293.551-.2637 1.072.0584 1.604-.3225.175-.1172.606.7033.798.6447.421-.0879.689-.5859 1.205-.6152.696-.0586 1.122.6443 1.799.6443.071 0 .14-.5857.206-.6443.175-.1172.604.7029.799.6443.834-.2344 1.443-1.1425 2.204-.6151.439.3223.39-.3223.605-.293.694.0586 1.492.9376 2.199.9376.11 0 .681-.8497.807-.9376.156-.0879.616.6446.799.6446.98 0 1.775-.3225 2.204-.6155.153-.1172.62.6154.799.6447.062 0 .142-.5861.204-.6447.171-.1172.606.674.799.6447.733-.1465 1.064-.967 1.805-.9377.722.0293 1.101.6154 1.805.6447.583.0293 1.057-.4688 1.6-.293.532.1758 1.06 1.2012 1.6 1.2598.175.0293.584-.9373.802-.9373.383.0293.826 1.0254 1.201.9668.586-.1172 1.191-.9083 1.807-.9376.534-.0293.974.3514 1.4.3221.614-.0293 1.014-.293 1.605-.293.678-.0293 1.152.762 1.802.6155.425-.0586.965-1.2013 1.407-1.2306.491-.0293 1.02.2928 1.4.3221.273.0293.813-.1172 1.003 0 1.049.7325 3.073-.615 4.208.9672 1.09-1.0255 2.628-.8792 3.806-.9085.269 0 1.32.2639 1.4.3225.459.3223.349-.293.605-.293.984 0 1.561.3222 2.403.3222 1.064-.0293 1.724-.2636 2.206-.6152.153-.0879.62.6443.797.6443.064 0 .144-.5857.202-.6443.16-.0879.62.6443.801.6443.067 0 .136-.5858.205-.6151.149-.1172.616.6151.799.6151.062 0 .138-.5858.2-.6151.149-.1172.627.6153.802.6446 1.007.0879 2.315-.1174 2.603-.3225.153-.0879.62.6447.799.6447.065 0 .142-.5859.203-.6152.157-.1172.616.6152.799.6152.066 0 .138-.5566.204-.6152.153-.1172.618.6154.799.6447.061 0 .142-.5861.201-.6447.157-.1172.62.6447.801.6447.066 0 .136-.5861.202-.6447.153-.0879.62.6447.797.6447.067 0 .144-.5862.205-.6155.161-.1172.616.6155.799.6155.069 0 .138-.5862.204-.6155.16-.1172.608.6447.799.6447.295-.0293.868-.6445 1.202-.6152.103-.0293.302.2344.401.293.754.5274 1.412-.381 2.001.0292.478.3223.31-.2636.603-.3222.697-.1172 2.06.0878 2.407.3222.429.3223.397-.3223.601-.293.816.1172 1.867 1.2305 2.602 1.2598.153.0293.614-.8791.803-.9377.145-.0293 1.404.3518 1.4.3225.905.6446 1.572-.1465 2.206-.586.185-.1465 1.206.3515 1.404.3222.995-.2051 2.17.293 3.202.9669 1.344-1.2893 3.007-.8496 4.209-.6152.523.1172 1.094.6153 1.802.6446.149 0 .612-.879.803-.9376.352-.0879 1.125.3221 1.404.3221.864.0293 1.592.3225 2.402.3225 1.576.0586 3.23-.8497 4.805.6739.926-.3516 1.843-.7617 2.808-.9082.282.1172.517.5273.803.6152.336.1172.492-.3223.601-.293.711.1465 1.112.6739 1.801.6446.269-.0293.896-.5276 1.202-.6155 1.143-.3516 1.277-.6151 1.404.3225.077.586.683-.2932.599-.3225 1.527.7618 1.13.6155 2.005.0295.161-.1172.616.6152.799.6152.069 0 .138-.5859.204-.6152.142-.1172.627.5859.799.6152.631.1172.999-.3809 1.603-.293.359.0586 1.255.2346 1.4.3225.478.3223.31-.2637.605-.293.712-.1172.921.3222 1.802.6152.922.3516 2.563.117 3.005.0291 1.104-.1758 2.87.6154 3.405.3517.495-.2344 1.102-.0585 1.604-.3222.519-.2344 1.006-.3809 1.605-.293.357.0586 1.253.2343 1.4.3222.473.3223.31-.2637.601-.293 1.509-.2637 4.193 1.1427 5.207.9669.976-.1465 1.576-.2343 2.406.3224.452.3223.357-.293.598-.293 3.862.0879 7.431.2636 10.818.7031 1.243.1465 2.443.5862 3.806.6741.095 0 .689-.8791.807-.9377.16-.1465.612.6152.798.6152.609-.0293.686-.2636 1.203-.6152.157-.1172.62.6447.799.6447.692 0 1.549-.3223 2.005 0 .474.3223.31-.2639.601-.3225 2.333-.3809 4.708 1.8167 7.015.0587.665.5274 1.331 1.0549 1.999 1.5823.254-.4395.827-.8792 1.203-.6155.455.3223.351-.293.601-.293.412 0 .298 1.172.599 1.2599.097.0293.291-1.2013.403-1.2599.187-.1172.596.6155.799.6155 1.385.0586 3.902.2343 4.609-.2638.146-.1172.631.6153.799.6446 1.064.1465 1.888-.5568 2.606-.3224.559.2051.57.3224 1.003.0294.153-.1172.62.6152.803.6152.057.0293.134-.5859.199-.6152.161-.1172.613.6447.803.6447.069 0 .127-.5861.2-.6447.171-.1172.603.674.799.6447.444-.0879.646-.6741 1.204-.6155.881.0586 1.473.4103 2.201.9377.431-.5567.886-1.0842 1.407-1.2307 1.163 1.2892 1.776.0001 2.998 1.5823.747-1.2013 1.845-.3516 2.606-.293.85.0586 1.565-.1465 2.005 0 1.427.5274 1.423-.2931 2.605-.2638.401 0 .802.9377 1.2.9377.28 0 .801-.5859 1.206-.6152.795-.0879 1.618-.1172 2.001 0 .646.2344.883.4101 1.4.3222 1.303-.1758 2.685.5273 3.806.6738 1.083.1465 1.526-.2928 2.407.3225.446.3223.362-.3223.599-.293.842.0293 1.576-.1465 2.005 0 1.232.4395 1.124.0878 2.005.0292.653-.0586.999.586 1.801.6446.245 0 .824-.6153 1.201-.6446 1.25-.0879 2.128.498 3.007.0292.357-.1758 1.206 1.2015 1.6 1.2601.216.0586.833-.6155 1.204-.6155 1.553.0293 2.892.967 4.204.9963.259 0 .9-.586 1.202-.6446.519-.0586.829.3808 1.404.3222.993-.0586 1.671-.4981 2.604-.293.835.2051 1.148.7618 1.805.6446.59-.0879 1.025-.2051 1.6-.293.715-.1172.919.3224 1.802.6447.36.1172.463-.3515.601-.3222 1.618.2344 2.811.8789 4.208.9668.244.0293.907-.5861 1.204-.6154.502 0 1.01.3224 1.403.3224.938.0586 1.914-.3515 2.801.6447.326-1.0841.827-1.3479 1.407-1.2307.594 1.6408 1.964 1.1134 2.201.9669.153-.1172.62.6152.799.6152.062.0293.142-.5859.204-.6152.132-.0879 1.043.8497 1.196.9376.474.3516.31-.2637.601-.293 1.143-.2051 2.506 1.0841 3.206.9669.332-.0586.7-.0293 1.002 0 .26.0293.525-.3222.601-.3222.374.0586.833 1.0254 1.201.9668.364-.0586.306-.9669.802-.9376 1.156.0293 1.951.6445 2.407.3222.171-.1172.601.6739.797.6446.453-.0879.634-.7031 1.204-.6152.937.1172 2.085 1.5235 3 1.5821.147.0293.623-.8788.806-.9374.303-.0879 1.186.2929 1.4.3222.818.1172 1.159.7618 1.802.6446 1.129-.1758 2.242-.1172 3.205.9669.64-1.9045 1.783-.3809 2.602-.293.056 0 .146-.5859.206-.6152.145-.1172.627.5859.797.6152 2.232.3223 4.459.2929 6.407 1.9337.513-.7032 1.12-1.0253 1.805-.9374 1.592 1.2306 2.763.4686 4.207.996.338-1.5529.839-2.3732 1.408-2.8127-1.157-.9962-1.021-2.637-1.189-4.102Z" clip-rule="evenodd"/>
</svg>
